/* XPM */
static char *_827a859bf834a06cd8a26bd182acc37KkUP3Htv3qEYxWXw[] = {
/* columns rows colors chars-per-pixel */
"64 64 220 2 ",
"   c #0A0908",
".  c #0D110B",
"X  c #12120E",
"o  c #1A150F",
"O  c #090A14",
"+  c #110E16",
"@  c #0C1218",
"#  c #1A1917",
"$  c #121618",
"%  c #1C1B1A",
"&  c #28211C",
"*  c #33251A",
"=  c #081322",
"-  c #131A22",
";  c #171C24",
":  c #1C2128",
">  c #232322",
",  c #272829",
"<  c #322F2E",
"1  c #35312D",
"2  c #282D31",
"3  c #312D32",
"4  c #373534",
"5  c #3B3B3B",
"6  c #50340F",
"7  c #613D16",
"8  c #4E3B21",
"9  c #0C4329",
"0  c #11472A",
"q  c #14492B",
"w  c #135334",
"e  c #2C582E",
"r  c #0A6E3C",
"t  c #176B37",
"y  c #0D713C",
"u  c #0A763C",
"i  c #15733D",
"p  c #1B783D",
"a  c #31682E",
"s  c #25783B",
"d  c #5D4016",
"f  c #704B16",
"g  c #504127",
"h  c #40413F",
"j  c #6D532A",
"k  c #4E6B29",
"l  c #63792E",
"z  c #7E773A",
"x  c #383F44",
"c  c #2B5843",
"v  c #325B45",
"b  c #3C5049",
"n  c #315E49",
"m  c #2D565D",
"M  c #0C7641",
"N  c #067C43",
"B  c #0C7A40",
"V  c #167542",
"C  c #137A41",
"Z  c #2B6545",
"A  c #386941",
"S  c #316649",
"D  c #257A41",
"F  c #2C5764",
"G  c #266279",
"H  c #454645",
"J  c #46494A",
"K  c #4B4D4E",
"L  c #4B4C50",
"P  c #4A5853",
"I  c #555756",
"U  c #5C5D5C",
"Y  c #49695C",
"T  c #5B6A5E",
"R  c #497A57",
"E  c #68655F",
"W  c #6B7750",
"Q  c #727D53",
"!  c #5E5E62",
"~  c #5C6B66",
"^  c #597765",
"/  c #5E7169",
"(  c #626363",
")  c #656869",
"_  c #6B6C6B",
"`  c #726D6E",
"'  c #63726A",
"]  c #6A726C",
"[  c #75716F",
"{  c #6C6471",
"}  c #6D6E76",
"|  c #736E72",
" . c #6F7274",
".. c #6B717A",
"X. c #737373",
"o. c #7A7575",
"O. c #767779",
"+. c #7B7B7A",
"@. c #855512",
"#. c #89741F",
"$. c #AE6C0F",
"%. c #A66A18",
"&. c #B87517",
"*. c #BC7B19",
"=. c #906E2E",
"-. c #A76B2D",
";. c #B27B28",
":. c #C97927",
">. c #8D3B48",
",. c #91744C",
"<. c #A47A45",
"1. c #867B66",
"2. c #807F7E",
"3. c #16833E",
"4. c #1F903F",
"5. c #2A893C",
"6. c #2D8A3E",
"7. c #33843B",
"8. c #338D3F",
"9. c #25933C",
"0. c #2B953E",
"q. c #2D983E",
"w. c #39973D",
"e. c #36A03D",
"r. c #4D8C39",
"t. c #43953F",
"y. c #48993D",
"u. c #539C3E",
"i. c #79922C",
"p. c #4DA13D",
"a. c #55A63C",
"s. c #5AA53D",
"d. c #5AA839",
"f. c #5DA93D",
"g. c #67A73A",
"h. c #64AA3C",
"j. c #69AE3C",
"k. c #74AD3A",
"l. c #6CB13B",
"z. c #73B13C",
"x. c #7CB63B",
"c. c #7DB93A",
"v. c #2A8941",
"b. c #328E41",
"n. c #269541",
"m. c #389540",
"M. c #3B9441",
"N. c #449441",
"B. c #489640",
"V. c #469B41",
"C. c #4B9B41",
"Z. c #4C8056",
"A. c #7C884E",
"S. c #59807A",
"D. c #748079",
"F. c #9B862D",
"G. c #8D9829",
"H. c #9EA029",
"J. c #80B73D",
"K. c #85B93C",
"L. c #8BBC3B",
"P. c #91BF3B",
"I. c #ABA72C",
"U. c #CB8E19",
"Y. c #E89919",
"T. c #DAA718",
"R. c #E4A918",
"E. c #E7B31C",
"W. c #EEBA1E",
"Q. c #F5B115",
"!. c #F7B71B",
"~. c #F2BC1E",
"^. c #CC9828",
"/. c #E99C23",
"(. c #D0AD28",
"). c #EBAF22",
"_. c #EDB720",
"`. c #F2B520",
"'. c #F3BE20",
"]. c #94C13B",
"[. c #9AC43C",
"{. c #FFC518",
"}. c #FCD61B",
"|. c #F6D126",
" X c #899155",
".X c #A99550",
"XX c #85BD5F",
"oX c #B2A44D",
"OX c #88846C",
"+X c #908C61",
"@X c #8EA566",
"#X c #85A27B",
"$X c #97C674",
"%X c #2C6E87",
"&X c #1971A0",
"*X c #117CBA",
"=X c #807F80",
"-X c #1B82BC",
";X c #3F83A8",
":X c #2584B4",
">X c #738F93",
",X c #4887A1",
"<X c #1886C5",
"1X c #258FC7",
"2X c #3496C8",
"3X c #389BD7",
"4X c #3DA1DA",
"5X c #39AAF0",
"6X c #43A0CF",
"7X c #4BAADA",
"8X c #49ABE2",
"9X c #4CB5EF",
"0X c #52B2E2",
"qX c #51B7EC",
"wX c #48B5F4",
"eX c #838281",
"rX c #898887",
"tX c #86A990",
"yX c #A3CC8F",
"uX c #C6DEB6",
/* pixels */
"X.X.X.X.X.X.X.X.X.X.X.X.X.X.X.X.X.X.X.X.X.X.X.X.X.X.X.X.X.X.X.X.X.X.X.X.X.X.X.X.X.X.X.X.X.X.X.X.X.X.X.X.X.X.X.X.X.X.X.X.X.X.X.X.",
"X.X.X.X.X.X.X.X.X.X.X.X.X.X.X.X.X.X.X.X.X.X.X.X.X.X.X.X.X.X.X.X.X.X.X.X.X.X.X.X.X.X.X.X.X.X.X.X.X.X.X.X.X.X.X.X.X.X.X.X.X.X.X.X.",
"X.X.X.X.X.X.X.X.X.X.X.X.X.X.X.X.X.X.X.X.X.X.X.X.X.X.X.X.X.X.X.X.X.X.X.X.X.X.X.X.X.X.X.X.X.X.X.X.X.X.X.X.X.X.X.X.X.X.X.X.X.X.X.X.",
"X.X.X.X.X.X.X.X.X.X.X.X.X.X.X.X.X.X.X.X.X.X.X.X.X.X.X.X.X.X.X.X.X.X.X.X.X.X.X.X.X.X.X.X.X.X.X.X.X.X.X.X.X.X.X.X.X.X.X.X.X.X.X.X.",
"X.X.X.X.X.X.X.X.X.X.X.X.X.X.X.X.X.X.X.X.X.X.X.X.X.X.X.X.[  .X.X.X.X.X.X.X.X.X.X.X.X.X.X.X.X.X.X.X.X.X.X.X.X.X.X.X.X.X.X.X.X.X.X.",
"X.X.X.X.X.X.X.X.X.X.X.X.X.X.X.X.X.X.X.X.X.X.X.X.X.X.X.X.[ X.X.X.X.X.X.X.X.X.X.X.X.X.X.X. .| X. .X.X.X.X.X.X.X.X.X.X.X.X.X.X.X.X.",
"X.X.X.X.X.X.X.X.X.X.X.X.X.X.X.X.X.X.X.X.X.X.X.X.X.X.X.X. .X.o.] _ ] _ _ _ _ _ _ _ _ _ ` X.X.X.X.X.X.X.X.X.X.X.X.X.X.X.X.X.X.X.X.",
"X.X.X.X.X.X.X.X.X.X.X.X.X.X.X.X.X.X.X.X.X.X.X.X.X.X.X.X.X.) / c e n n n n n n n v v c v / ] o.| X.X.X.X.X.X.X.X.X.X.X.X.X.X.X.X.",
"X.X.X.X.X.X.X.X.X.X.X.X.X.X.X.X.X.X.X.X.X.X.X.] X.| O.O.P A u.u.C.M.N.D t.w.w.w.v.b.v.i M Y | O.X.X.X.X.X.X.X.X.X.X.X.X.X.X.X.X.",
"X.X.X.X.X.X.X.X.X.X.X.X.X.X.X.X.X.X.X.X.X.X.X.X.X.X.} b V x.P.P.x.j.h.b.g.XX$Xd.w.e.e.i M / | } X.[ X.X.X.X.X.X.X.X.X.X.X.X.X.X.",
"X.X.X.X.X.X.X.X.X.X.X.X.X.X.X.X.X.X.X.X.X.X.X.X.X.o.Y r.V.s.P.L.k.N.t V d.yXuXd.q.n.t Z D.rXX.X.X. . .X.X.X.X.X.X.X.X.X.X.X.X.X.",
"X.X.X.X.X.X.X.X.X.X.X.X.X.X.X.X.X.X.X.X.X.X.X.X. .o.R x.k.b.P.g.M.t s b.f.g.h.w.i w $ $ L OXo.X.X.X.X.X.X.X.X.X.X.X.X.X.X.X.X.X.",
"X.X.X.X.X.X.X.X.X.X.X.X.X.X.X.X.X.X.X.X.X.X.X.X.X.X.R c.P.7.M.C.r.s s.7.f.t.p p v.q O < =.;.=.+.X.X.X.X.X.X.X.X.X.X.X.X.X.X.X.O.",
"X.X.X.X.X.X.X.X.X.X.X.X.X.X.X.X.X.X.X.X.X.X.X.X. .| R l.C.5.B.k.t a.j.s i i M.a.q.9 * &.d o # H ( X.X.X.X.X.X.X.X.X.X.X.X.X.X.X.",
"X.X.X.X.O.X.X.X.X.X.X.X.X.X.X.X.X.X.X.X.X.X.X.X.X.X.R 8.u.K.b.t y.y.p p t.f.j.d.n.e $.* - # > X X I X.X.X.X.X.X.X.X.X.X.X.X.X.X.",
"X.X.X.X.X.X.X.X.X.X.X.X.X.X.X.X.X.X.X.X.X.X.X.X.X.[ Z.z.[.g.Z v.7.s V.j.l.j.j.f.n.l 7 ; & I U H % % _ X.X.X.X.X.X.X.X.X.X.X.X.X.",
"X.X.X.X.X.X.X.X.X.X.X.X.X.X.X.O. .X.X.X.X.X.X.X.X.| Z.c.].7.w r C v.b.6.5.6.6.6.u k & # K ) x I h   K +._ X.X.X.X.X.X.X.X.X.X.X.",
"X.X.X.X.X.X.X.X.X.X.X.X.X.X.X.X.X.X.X.X.X.X.X.X.X.o.R y.v.u 3.C C u M B B B B u N e * # U ! , P J   H +.X.X.X.X.X.X.X.X.X.X.X.X.",
"X.X.X.X.X.X.X.X.X.X.X.X.X.X.X.X.X.X.X.X.X.X.X. . .X.Y p s.x.J.J.l.f.h.f.f.f.h.a.n.k * > 1 ` ~ I < X E X.X.X.X.X.X.X.X.X.X.X.X.X.",
"X.X.X.X.X.X.X.X.X.X.X.X.X.X.X.X.X.X.X.X.X.X.X.X.X.X./ t.].L.L.L.z.f.h.j.h.h.h.s.4.l @.; % 1 8 , . 4 X.X.| X.X.X.X.X.X.X.X.X.X.X.",
"X.X.X.X.X.X.X.X.X.X.X.X.X.X.X.X.X.X.X.X.X.X.X.X.X.X./ t.L.XXK.L.z.h.h.h.h.h.h.a.0.9 %.7 # @ $ % h X.X.X.X.X.X.X.X.X.X.X.X.X.X.X.",
"X.O.X.X.X.X.X.X.X.X.X.X.X.X.X.X.X.X.X.X.X.X.X.X.X.o./ t.L.L.K.L.z.f.h.h.h.h.h.a.0.9 o #.@.7 8 } X.X.X.X.] X.X.X.X.X.X.X.X.X.X.X.",
"X.X.X.X.X.X.X.X.X.X.X.X.X.X.X.X.X.X.X.X.X.X.X.X.X.X.~ w.L.L.L.L.l.h.h.h.h.h.g.a.b.q O = g j =.O.X.X.X.X.X.X.X.X.X.X.X.X.X.X.X.X.",
"X.X.X.X.X.X.X.X.X.X.X.X.X.X.X.X.X.X.X.X.X.X.X.X.[ [ / r.P.L.L.L.z.g.h.h.h.j.j.s.q.q + ; = = L O.X.X.|  .X.X.X.X.X.X.X.X.X.X.X.X.",
"X.X.X.X.X.X.X.X.X.X.X.X.X.X.X.X.X.X.X.X.X.X.X.X.X.X./ w.x.z.z.z.j.a.s.a.s.a.s.p.n.q + ; : ; K O.X.X.X.X.X.X.X.X.X.X.X.X.X.X.X.X.",
"X.X.X.X.X.X.X.X.X.X.X.X.X.X.X.X.X.X.X.X.X.X.X.X.X.X.' i M M M M M M M M M M M M N 9 + ; ; ; K O.X.X.X.X.X.X.X.X.X.X.X.X.X.X.X.X.",
"X.X.X.X.X.X.X.X.X.X.X.X.X.X.X.X.X.X.X.X.X.X.X.X.X.X.' v.C.V.V.V.M.M.m.m.m.m.M.m.n.0 O - : - K +.X.X.X.X.X.X.X.X.X.X.X.X.X.X.X.X.",
"X.X.X.X.X.X.X.X.X.X.X.X.X.X.X.X.X.X.X.X.X.X.X.X.X.o./ B.].L.P.P.z.j.j.j.j.j.j.f.n.e 4 2 : - L O. .X.X.X.X.X.X.X.X.X.X.X.X.X.X.X.",
"X.X.X.X.X.X.X.X.X.X.X.X.X.X.X.X.X.X.X.X.X.X.X.X.X.X./ N.L.K.L.K.j.h.h.h.f.h.h.a.0.q 3 5 J ; J +.[ X.X.X.X.X.X.X.X.X.X.X.X.X.X.X.",
"X.X.X.X.X.X.X.X.X.X.X.X.X.X.X.X.X.X.X.X.X.X.X.X.X.o.' t.L.K.L.L.z.s.h.h.h.h.h.a.M.0 O O 5 2 J O. .X.X.X.X.X.X.X.X.X.X.X.X.X.X.X.",
"X.X.X.X.X.X.X.X.X.X.X.O.X.X.X.X.X.X.X.X.X.X.X.X.X.o./ N.P.K.L.L.z.h.h.h.h.h.h.s.n.w 3 2 x , J +.] X.X.X.X.X.X.X.X.X.X.X.X.X.X.X.",
"X.X.X.X.X.X.X.X.X.X.X.X.X.X.X.X.X.X.X.X.X.X.X.X.[ X.' t.L.K.K.K.z.s.h.h.h.h.h.a.9.S | O.o.) ( o.X.X.X.X.X.X.X.X.X.X.X.X.X.X.X.X.",
"X.X.X.X.X.X.X.X.X.X.X.X.X.X.X.X.X.X.X.X.X.X.X.X.X.X.' C.].P.].].z.j.j.j.j.j.j.f.q.S ` OXeXeXo. .X.X.X.X.X.X.X.X.X.X.X.X.X.X.X.X.",
"X.X.X.X.X.X.X.X.X.X.X.X.X.X.X.X.X.X.X.X.X.X.X.X.X.o.' 6.y.t.w.y.M.b.8.8.8.8.w.b.3.S ` +.eXeXX.X.X.X.X.X.X.X.X.X.X.X.X.X.X.X.X.X.",
"X.X.X.X.O.X.X.X.X.X.X.X.X.X.X.X.X.X.X.X.X.X.X.X.X.X.' C u p i i C C C C C B B C u S } =X=X=X} | X.X.X.X.X.X.X.X.X.X.X.X.X.X.X.X.",
"X.X.X.X.X.X.X.X.X.X.X.X.X.X.X.X.X.X.X.X.X.X.X.X.X.X./ w.].K.K.L.z.f.h.h.h.h.j.a.0.S | OXeX=X .X.X.X.X.X.X.X.X.X.X.X.X.X.X.X.X.X.",
"X.X.X.X.X.X.X.X.X.X.X.X.X.X.X.X.X.X.X.X.X.X.X.X.X.o.' t.P.K.K.L.z.h.h.h.h.h.j.a.0.S { D.eXOXX.X.X.X.X.X.X.X.X.X.X.X.X.X.X.X.X.X.",
"X.X.X.X.X.X.X.X.X.X.X.X.X.X.X.X.X.X.X.X.X.X.X.X.X.X.) t.P.XXL.P.z.f.j.h.h.g.j.a.n.A .X+.eXeXX.X.X.X.X.X.X.X.X.X.X.X.X.X.X.X.X.X.",
"X.X.X.X.X.X.X.X.X.X.X.X.X.X.X.X.X.X.X.X.X.X.X.X.[ O./ M.c.x.z.x.h.a.f.f.f.f.f.p.9.a <.=XrX..] X.X.X.X.X.X.X.X.X.X.X.X.X.X.X.X.X.",
"X.X.X.X.X.X.X.X.X.X.X.X.X.X.X.X.X.X.X.X.X.X.X.X.X.X.) V C V C C C V V y y y y M r b >.L 2 & E O. .X.X.|  .X.X.X.X.X.X.X.X.X.X.X.",
"X.X.X.X.X.X.X.X.X.X.X.X.X.X.X.X.X.X.X.X.X.X.X.X.X.X.] ] ' ] _ ]  .X.~ X . . . .   X     d @.j { X.X.X.X.X.X.X.X.X.X.X.X.X.X.X.X.",
"X.X.X.X.X.X.X.X.X.X.X.X.X.X.X.X.X.X.X.X.X.X.X.X.X.X.X.X.X.OX_.^.&.*.&.$.$.&.*.*.*.&.6 %.j # # # 5 _ X.X.X.X.X.X.X.X.X.X.X.X.X.X.",
"X.X.X.X.X.X.X.X.X.X.X.X.X.X.O.X.X.X.X.X.X.X.X.X.X.X.X.[ } +X}.=.F F m F F z Q.W.'.W.U.g O 1 5 > . 4 O.X.X.X.X.X.X.X.X.X.X.X.X.X.",
"X.X.X.X.X.X.X.X.X.X.X.X.X.X.X.X.X.X.X.X.X.X.X.X.X.X.X.X.} +X}.Q 5X1X:X1X<XY U.!.~.~.;.$ 4 _ ( I 1 . U X.| X.X.X.X.X.X.X.X.X.X.X.",
"X.X.X.X.X.X.X.X.X.X.X.X.X.X.X.X.X.X.X.X.X.X.X.X.X.X.X.o. .+X}.z 8X7X:X:X-XT Q.I.H.!.=.O U U > P H   H =XX.X.X.X.X.X.X.X.X.X.X.X.",
"X.X.X.X.X.X.X.X.X.X.X.X.X.X.X.X.X.X.X.X.X.X.X.X.X.X.X.[ } +X}.z 4X0X2X*X<XW G.G.r.(.=.@ K { H I e + L o.] X.X.X.X.X.X.X.X.X.X.X.",
"X.X.X.X.X.X.X.X.X.X.X.X.X.X.X.X.X.X.X.X.X.X.X.X.X.X.X.[  .OX}.z 3X0X8X2X*X^ i.G.G.(.;., & I U H % % { o.X.X.X.X.X.X.X.X.X.X.X.X.",
"O.X.X.X.X.X.X.X.X.X.X.X.X.X.X.X.X.X.X.X.X.X.X.X.X.X.X.] X.[ }.z 3X0X0X7X<XY Q.I.G.W.R.7 % % % X % I o.| X.X.X.X.X.X.X.X.X.X.X.X.",
"X.X.X.X.X.X.X.X.X.X.X.X.X.X.X.X.X.X.X.X.X.X.X.X.X.X.X.X. .[ |.#.3X0X7X0X4X&Xz R.{.W._.Y.f & , H ( O.X.X.X.X.X.X.X.X.X.X.X.X.X.X.",
"X.X.X.X.X.X.X.X.X.X.X.X.X.X.X.X.X.X.X.X.X.X.X.X.X.X.X.X.X.} oXU.;XwX0X7X0X1X*XG F.~._.'./.U.;..XO.| X.X.X.X.X.X.X.X.X.X.X.X.X.X.",
"X.X.X.X.X.X.X.X.X.X.X.X.X.X.X.X.X.X.X.X.X.X.X.X.X.X.X.X.X.X. .oX XS.2X9X0X7X:X<X%XT.'._.~.'.!.U.,. .X.[ X.X.X.X.X.X.X.X.X.X.X.X.",
"X.X.X.X.X.X.X.X.X.X.X.X.X.X.X.X.X. .O.X.X.X.X.X.X.X.X.X. .X. ...>X@XA.,X8X9X6X-X%XT.'.'.`.'.W.Y.<. .X.X.X.X.X.X.X.X.X.X.X.X.X.X.",
"X.X.X.X.X.X.X.X.X.X.X.X.X.X.X.X.X.X.X.X.X.X.X.X.X.X.X.X.X.X.X.X.X.>XtX@XA.;XwX3X%XT.{._.W.W.W.Y.<...X.X.X.X.X.X.X.X.X.X.X.X.X.X.",
"X.X.X.X.X.X.X.X.O.X.X.X.X.X.X.X.X.X.X.X.X.X.X.X.X.X.X.X.X.X.X.X.X.] { >XtX XS.6X%XT.|.'.~.~.).Y.<...X.X.X.X.X.X.X.X.X.X.X.X.X.X.",
"X.X.X.X.X.X.X.X. .X.X.X.X.X.X.X.X.X.X.X.X.X.X.X.X.X.X.X.X.X.X.X.X.X.[ ` ..>X#XA.F.^.T.E.!.W.).Y.<...O.X.X.X.X.X.X.X.X.X.X.X.X.X.",
"X.X.X.X.X.X.X.X.X.X.X.X.X.X.X.X.X.X.X.X.X.X.X.X.X.X.X.X.X.X.X.X.X.X.X.( 4 < x b oXoX-.:.-./.Y.Y.,...X.X.X.X.X.X.X.X.X.X.X.X.X.X.",
"X.X.X.X.X.X.X.X.X.X.X.X.X.X.X.X.X.X.X.X.X.X.X.X.X.X.X.X.X.X.X.X.X.X.X.] _ _ ( ! ~ _ ` o.| 1.1.1.[ X.X.X.X.X.X.X.X.X.X.X.X.X.X.X.",
"X.X.X.X.X.X.X.X.X.X.X.X.X.X.X.X.X.X.X.X.X.X.X.X.X.X.X.X.X.X.X.X.X.X.[ X.o.X.X.X.[  .X.X.X.}  .} X.X.X.X.X.X.X.X.X.X.X.X.X.X.X.X.",
"X.X.X.X.X.X.X.X.X.X.X.X.X.X.X.X.X.X.X.X.X.X.X.X.X.X.X.X.X.X.X.X.X.X.X.X.[ } X.X.X.X.X.X.X.X.X.X.X.X.X.X.X.X.X.X.X.X.X.X.X.X.X.X.",
"X.X.X.X.X.X.X.X.X.X.X.X.X.X.X.X.X.X.X.X.X.X.X.X.X.X.X.X.X.X.X.X.X.X.X.X.[ X.X.X.X.X.X.X.X.X.X.X.X.X.X.X.X.X.X.X.X.X.X.X.X.X.X.X.",
"X.X.X.X.X.X.X.X.X.X.X.X.X.X.X.X.X.X.X.X.X.X.X.X.X.X.X.X.X.X.X.X.X.X.X.X.X.X.X.X.X.X.X.X.X.X.X.X.X.X.X.X.X.X.X.X.X.X.X.X.X.X.X.X.",
"X.X.X.X.X.X.X.X.X.X.X.X.X.X.X.X.X.X.X.X.X.X.X.X.X.X.X.X.X.X.X.X.X.X.X.X.X.X.X.X.X.X.X.X.X.X.X.X.X.X.X.X.X.X.X.X.X.X.X.X.X.X.X.X.",
"X.X.X.X.X.X.X.X.X.X.X.X.X.X.X.X.X.X.X.X.X.X.X.X.X.X.X.X.X.X.X.X.X.X.X.X.X.X.X.X.X.X.X.X.X.X.X.X.X.X.X.X.X.X.X.X.X.X.X.X.X.X.X.X.",
"X.X.X.X.X.X.X.X.X.X.X.X.X.X.X.X.X.X.X.X.X.X.X.X.X.X.X.X.X.X.X.X.X.X.X.X.X.X.X.X.X.X.X.X.X.X.X.X.X.X.X.X.X.X.X.X.X.X.X.X.X.X.X.X."
};
