/* XPM */
static char *result[] = {
/* columns rows colors chars-per-pixel */
"64 64 240 2 ",
"   c #040301",
".  c #0C0A08",
"X  c #12110E",
"o  c #101315",
"O  c #151618",
"+  c #271C08",
"@  c #34240B",
"#  c #3D3614",
"$  c #353A3C",
"%  c #067C31",
"&  c #62511E",
"*  c #393E40",
"=  c #3C464A",
"-  c #0D7A75",
";  c #495050",
":  c #69675B",
">  c #5D6768",
",  c #566A75",
"<  c #A80106",
"1  c #D00400",
"2  c #CB2B0E",
"3  c #845001",
"4  c #956419",
"5  c #9E681B",
"6  c #A36D1C",
"7  c #A5711D",
"8  c #AB731D",
"9  c #B2771D",
"0  c #91742E",
"q  c #A77422",
"w  c #B67B21",
"e  c #DF5416",
"r  c #DF502C",
"t  c #E46A2D",
"y  c #957A4C",
"u  c #A26C68",
"i  c #078434",
"p  c #338A39",
"a  c #238D58",
"s  c #1E887B",
"d  c #349373",
"f  c #449D7A",
"g  c #699A62",
"h  c #70CD52",
"j  c #B2992E",
"k  c #BDA02B",
"l  c #CD8B1D",
"z  c #ED8F00",
"x  c #ED9B07",
"c  c #F79A01",
"v  c #F0A31A",
"b  c #C78925",
"n  c #C68B27",
"m  c #CB8D29",
"M  c #D38E24",
"N  c #CE912A",
"B  c #D79123",
"V  c #D89326",
"C  c #D5932B",
"Z  c #DA972D",
"A  c #DA982E",
"S  c #DA9A37",
"D  c #D1A539",
"F  c #D9BC3B",
"G  c #E5AA28",
"H  c #ECB925",
"J  c #EBAB30",
"K  c #F9CA0C",
"L  c #FACD15",
"P  c #F3C71F",
"I  c #F6CB1F",
"U  c #F9CE1E",
"Y  c #FED117",
"T  c #FBD01C",
"R  c #EAC62A",
"E  c #F3C623",
"W  c #F9CE20",
"Q  c #FAD023",
"!  c #FCD42B",
"~  c #F3C730",
"^  c #FCD633",
"/  c #FBD73B",
"(  c #AB8146",
")  c #A9B451",
"_  c #90866E",
"`  c #928878",
"'  c #AD8F69",
"]  c #A89B78",
"[  c #B8A572",
"{  c #D19D49",
"}  c #DDA349",
"|  c #CFB84C",
" . c #E8AB52",
".. c #F98A64",
"X. c #C8B175",
"o. c #CBB274",
"O. c #E5B663",
"+. c #ECB16D",
"@. c #E7BB6A",
"#. c #B5C44A",
"$. c #DCC143",
"%. c #F4CA4C",
"&. c #FAD84A",
"*. c #F9DA58",
"=. c #FFE358",
"-. c #ECC46C",
";. c #F9D866",
":. c #EAC272",
">. c #F4CA73",
",. c #F8DB75",
"<. c #FFE563",
"1. c #FFEB65",
"2. c #FDE778",
"3. c #5E7583",
"4. c #647B8A",
"5. c #6924DD",
"6. c #2B73D8",
"7. c #3477DE",
"8. c #327DE2",
"9. c #BC7C85",
"0. c #FF5DB7",
"q. c #0C858B",
"w. c #08898F",
"e. c #048E93",
"r. c #088B91",
"t. c #039197",
"y. c #02969C",
"u. c #0C959B",
"i. c #02989E",
"p. c #14939A",
"a. c #1B939B",
"s. c #2B9294",
"d. c #2FA690",
"f. c #0096A2",
"g. c #0C90A2",
"h. c #0299A0",
"j. c #349BA4",
"k. c #03A0A7",
"l. c #03A0A8",
"z. c #17A8AD",
"x. c #1EA9AE",
"c. c #1EAAB0",
"v. c #20A9AF",
"b. c #3CA7A5",
"n. c #579F9E",
"m. c #798886",
"M. c #768D9A",
"N. c #7C8E99",
"B. c #78919D",
"V. c #68AA9C",
"C. c #6896A2",
"Z. c #7B96A6",
"A. c #4BA7AC",
"S. c #60A1AF",
"D. c #76ACBA",
"F. c #7CAED7",
"G. c #4B8DE4",
"H. c #569AF4",
"J. c #6EC5C6",
"K. c #8B8E8D",
"L. c #8E948B",
"P. c #939588",
"I. c #949695",
"U. c #A79D84",
"Y. c #A49C89",
"T. c #B6969E",
"R. c #9BA394",
"E. c #A7A58B",
"W. c #BCAC84",
"Q. c #B3B18F",
"!. c #ACA898",
"~. c #B4AE98",
"^. c #BAB49A",
"/. c #859DA7",
"(. c #839BA8",
"). c #919DA4",
"_. c #AF91AA",
"`. c #97A6AC",
"'. c #85A7B8",
"]. c #8EADBE",
"[. c #97AAB5",
"{. c #8FB0BA",
"}. c #ADB1A8",
"|. c #B7B6B7",
" X c #C5B38D",
".X c #E6BD81",
"XX c #E898A0",
"oX c #9DCEB1",
"OX c #D8C49E",
"+X c #F2D085",
"@X c #FDE78A",
"#X c #D1C9AF",
"$X c #EBD3AC",
"%X c #FAEFAC",
"&X c #8EAFC1",
"*X c #8DB6C5",
"=X c #8CB9C9",
"-X c #98B7C8",
";X c #9CBED0",
":X c #A5BDC5",
">X c #B7BDC3",
",X c #84B7EB",
"<X c #99C8C8",
"1X c #9ED1C2",
"2X c #9CC4D2",
"3X c #AECACF",
"4X c #A2C5DA",
"5X c #A4C9DD",
"6X c #A9C8D9",
"7X c #B5CBD8",
"8X c #A6CCE2",
"9X c #AACEE2",
"0X c #ADD1E5",
"qX c #ADD3E9",
"wX c #B4D3E4",
"eX c #BAD6E6",
"rX c #B1D1E8",
"tX c #B1D5E9",
"yX c #BBD8E8",
"uX c #BDDAEA",
"iX c #B5DAF3",
"pX c #B9E0FA",
"aX c #C9C7C8",
"sX c #CCCCCB",
"dX c #CDD1D4",
"fX c #D4D4D4",
"gX c #D6D7DA",
"hX c #DBDBDB",
"jX c #E2DFC6",
"kX c #F4EDCC",
"lX c #F5EED4",
"zX c #FAF4D7",
"xX c #FFFADD",
"cX c #C2DCEB",
"vX c #C8DCE9",
"bX c #C1DEF0",
"nX c #CBE1EE",
"mX c #D2E7F2",
"MX c #FFFFE7",
"NX c #FFFFF2",
/* pixels */
"9X9X9X9X9X9X9X9X9X9X9X9X9X9X9X9X9X9X9X9X9X9X9X9X9X9X9X9X9X9X9X9X9X9X9X9X9X9X9X9X9X9X8X9X9X9X9X9X8X9X9X9X5X0X0X0X0X5X9X9X5X9X9X9X",
"9X9X9X9X9X9X9X9X9X9X9X9X9X9X9X9X9X9X9X9X9X9X0X9X9X9X9X9X9X9X9X9X9X9X0X9X9X9X9X9X9X9X0X9X9X9X0X9X0X9X9X9X0X0X0X5X0X0X9X0X0X0X9X0X",
"9X9X9X9X9X9X9X9X9X9X9X9X9X9X9X9X9X9X9X9X9X9X9X9X9X9X9X9X9X9X9X9X9X9X9X9X9X8X9X9X9X9X9X9X9X9X9X9X9X9X9X9X5X0X5X9X5X0X5X9X0X5X9X9X",
"9X0X9X9X9X9X9X9X9X9X9X9X9X9X9X9X0X9X9X9X0X9X9X9X9X0X9X9X9X9X9X9X0X9X9X9X0X0X9X9X0X9X9X9X0X9X9X9X9X0X9X9X0X0X0X9X0X0X0X0X0X0X9X9X",
"9X9X9X9X9X9X9X9X9X9X9X9X9X9X9X9X9X9X0X0X9X9X9X9X9X9X9X9X8X9X9X9X9X9X8X9X9X9X9X8X9X9X9X9X9X9X9X9X9X9X9X0X9X9X0X9X9X9X9X0X9X9X0X9X",
"9X9X9X9X9X0XtXtXtXqX9X9X9X9X9X9X9X0X9X9X9X9X9X9X9X9X9X9X9X9X9X9X5X9X9X9X9X9X9X9X9X8X9X9X9X9X9X9X9X9X0X0X9X0X0X0X9X9X9X9X9X9X9X9X",
"9X9X9X9X0X&X3., , ].qX9X9X9X9X9X9X9X9X9X9X9X9X9X9X0X0X9X0X0X9X9X0X0X0X0X0X9X9X0X0X0X0X9X0X9X9X9X9X9X9X5X9X9X9X5X9X9X9X9X0X9X9X9X",
"9X9X9X0XZ.= P.E.P.; 4.9X9X9X9X9X0X9X9X9X9X9X9X9X8X4X5X5X5X5X5X5X5X5X5X5X4X9X9X4X4X4X4X5X4X5X0X9X9X0X9X9X9X9X9X0X9X9X9X9X9X9X9X9X",
"0X8X8X&X* #XMXxXMXjX= Z.tX8X9X9X9X9X0X0X9X9X9X4XY. X^.^. X~.^.^.^. X~.~.~.R.`.X. XW. X[ W.] <X9X9X9X9X9X9X9X9X9X9X9X9X9X9X6X0X0X",
"9X8XqX, ` MXkXxXzXMX}.; qX0X9X9X9X0X9X9X9X9X9X:XU.| XX0...>.t r t T.%.;.@X` P.,.*.1.1.=.1.X.B.9X8X9X9X9X9X9X9X9X9X9X9X5X9X9X0X5X",
"9X8X9X> ^.MXzX#XlXxX#X= 4X0X9X9X9X9X0X9X9X9X0X3XL.s j 0...kX..1 2 5.u H 2.` K.,.%.t e  .1.X.B.9X9X9X9X9X9X5X9X0XwXwXwXwXwXwXwX0X",
"9X9X0X, E.NXjX|.lXMX^.; 9X8X9X9X0X9X9X9X9X8XqX:XP.a.d ' ..zXNX+.e 5.5.9.;.` L.2.t < < 2 <.X.M.9X9X9X9X9X9XwXwXwXwXwXwXwXwXwXwXwX",
"9X8XqXZ.; zXjXjXxXMX: 4.qX0X0X5X9X0X9X0X9X9X9X3X] Q.R.E.X.OX#XOX+.T._._. X_ K.2.t < < 2 1.[ M.9X5X9X5X0XwXwXwXyXyXyXuXuXeXuXyXyX",
"9X9X5X9X, ;  XjX#X: > 6X0X5X9X0X9X0X9X9X9X9X9X5X`.m.m.m.m.m.4.g m.m.m.m.g N.!.,.&.e 2  .1.X.M.9X9X9X9XwXwXwXeX6X7XwX7X7X7X7X7X6X",
"9X9X0X9X8XM.= = = 4.4X9X9X9X0X5X9X9X0X9X5X9X0X4XU.^.}.~.~.~.~.~.!.!.~.~.~.I.}.>.=.*.D =.1.X.M.9X9X0X0XwXwXyX3X$.$.$.$.$.$.$.$.$.",
"9X9X0X9X8XqX0X2X2XqX9X9X9X9X0X0X0X9X9X9X9X9X0X<XQ.cXwXeXeXeX<X3XeXeX6X6XgXP.I.,.) i j =.1.X.M.0X9X6XwXwXyXwXo.K T T Y Y Y T T T ",
"9X9X5X0X0X5X0X0X0X5X0X9X9X9X9X9X9X9X9X9X9X9X0X:X~.iX8X8X8X9Xa V.oX1Xd d vX` L.,.#.p j =.<.X.M.0X9X9XwXeXuX|.R T Q U W W W W W W ",
"9X9X0X9X9X9X5X0X9X0X0X9X9X9X9X0X0X9X0X9X9X9X0X-X^.uX6XwXyXV.% i h h i i oX` L.,.=.%.| *.<.X.M.0X9XwXwXcXwX| Y Q U U U U U U U U ",
"9X9X9X9X5X0X0X0X9X5X9X9X9X9X9X9X9X9X9X9X0X8X0X<X!.,XF.,XF.s.- - f d - - V.P.L.,.=.%.| *.<.X.M.0X9XwXeXcX3XH U U U W U W U W U W ",
"0X9X9X9X0X0X5X0X0X9X9X0X9X9X0X9X9X0X0X9X5X0X0X>XI.6.6.6.6.6.7.7.6.8.8.7.G.u P.,.=.$.k *.=.X.M.0XwXwXwXcX3XR T U T W U U U U U U ",
"9X9X9X9X0X5X0X0X9X9X0X9X9X0X5X0X9X9X9X9X0X0XqX|.!.H.G.G.G.G.G.G.G.G.G.G.,X` L.@X1.1.*.<.2.o.B.0X9XwXeXcX3XR U U I I L I I U U U ",
"0X0X9X0X0X0X0X0X0X9X9X9X0X0X0X0X0X9X0X9X0X5XqX2X] Y.P.Y.Y.Y.Y.Y.Y.Y.Y.Y.I.y K.] E.] ] ] [ _ B.0XwXwXyXcX3XR L U Y Y Y T T Y T L ",
"9X9X9X9X5X0X5X0X0X9X0X0X9X9X0X0X9X9X9X9X9X9X8X8X-X/.(.(././.(./././././.(.'.2X'.(.(.'.(.(.(.-X9X9XwXeXcX7X| F F F F F j F F F F ",
"9X9X0X9X0X0X5X0X0X5X0X5X9X0X5X0X9X9X9X9X9X0X9X9X9XqXwXqXtXtXqXqXqXqXqXqXqX0X9XqXqX0XqXqXtXrX9X5X9XwXeXyXcX7X3XaX7XcX|.O K.vXsX7X",
"9X9X9X0X6XwX0X9X9X9X9X9X5X0X0X0X9X9X9X9X8X9X9X9X9X9X9X9X9X9X9X9X0X0X9X5X9X9X9X9X9X9X9X9X5X9X9X9X9X9XwXuXcXvXnXmXmXmX|.o /.mXmXmX",
"9X9X5X9XwX<X<XqX9X9X9X9X0X9X5X0X9X9X9X9X9X9X9X6X9X9X9X9X6X9X9X9X0X8X9X9X9X9X9X9X9X9X9X9X9X9X9X9X9XwXwXyXuXcXvXvXmXmX>   $ vXmXvX",
"9X8XwX{.f f a 6X9X9X9X9X0X0X8X9X0X5X8X0X9X9X9X9X9X9X9X9X9X9X9X9X9X9X9X9X9X9X9X9X9X9X9X8X9X9X9X9X9X9XwXwXuXeXcXvXnXnX;   $ 7XnXvX",
"9X9XqX<Xd i a f 2X9X9X9X8X0X0X9X9X2X=X=X*X*X*X*X&X*X*X*X*X*X*X*X*X*X=X=X=X=X=X*X=X=X=X=X=X=X*X=X=X=X-X6XyXeXuXcXvXnX[.X K.nXcXcX",
"9X9X8XqXtXd % d 2X0X9X9X9X9X0X9X6XA.z.v.x.x.v.x.v.x.x.x.x.x.x.x.v.v.a.c.v.x.x.c.x.x.x.x.c.c.c.v.v.c.z.D.eXrXeXuXuXbX:XO /.bXyXyX",
"9X9X8X8X3Xg a }.9X9X9X9X9X9X8X8X7Xj.t.y.y.y.y.y.y.y.y.y.y.y.y.y.y.y.e.y.y.y.y.y.y.y.y.y.y.y.y.y.y.y.e.S.7X0XwXeXeXuX:Xo (.cXeXeX",
"9X9X9XqXX.l l { 5X9X9X9X9X9X0X0X9XA.t.h.y.i.i.i.y.i.i.u.f.i.i.i.i.y.r.h.h.h.y.i.i.u.i.i.h.h.f.h.h.f.y.S.rXrXwXyXwXyX:Xo Z.uXwXwX",
"9X9X8XiX_ 3 3 y qX9X9X0X8X;X-X;X-Xj.f.y.f.y.i.i.y.i.i.y.y.y.i.i.i.y.r.i.i.y.y.y.y.i.i.f.y.t.t.y.t.t.e.n.-X;X;X;X9XwX{.o Z.yX9X9X",
"4X{.].-X_ 3 3 : -X[.&X:XD.a.p.a.a.u.i.i.i.i.i.t.y.y.y.i.t.i.i.y.i.y.e.y.h.i.i.y.y.y.u.y.b.1X1X1X1X1X1Xj.p.a.p.j.;XwX&Xo B.tX9X9X",
"[.I.I.I.` _ _ 9.I.I.I.I.C.i.i.i.y.t.i.i.t.i.i.y.i.i.i.y.i.t.i.i.i.y.e.y.i.y.y.i.y.i.i.i.J.MXMXxXxXxXxXb.y.i.y.p.-XqX].o B.tX5X9X",
";X).|.|.|.|.|.|.|.|.}.).D.y.i.i.y.t.i.i.i.i.y.i.i.i.i.i.i.i.y.i.i.y.r.y.i.f.i.y.i.y.g _ ) >.>.zXzXxXzXb.y.y.i.a.-XqX&Xo B.tX9X9X",
"4X`.hXfXfXhXhXhXsXhX>X`.D.t.i.i.i.t.t.i.i.i.i.i.i.y.y.i.i.i.i.i.i.y.r.y.i.y.u.i.y.e.l c c z v zXxXxXzXb.y.i.i.a.-XqX].o B.0X9X9X",
"4X`.fXfXfXfXfXfXsXhX|.`.D.u.i.i.y.t.i.i.i.i.i.i.i.i.i.i.y.i.i.i.i.y.r.i.i.i.i.i.i.i.j c x x G zXxXzXzXb.y.i.i.a.-XqX].o B.qX0X9X",
"4X`.aXsXsXaXsXsXsXsX|.[.D.y.i.i.i.t.t.y.u.e.y.y.t.i.i.t.y.y.y.t.y.i.r.u.y.y.y.y.y.i.k c x c v zXxXxXxXb.y.i.y.a.-XwX].o B.qX9X9X",
"6X`.hXsXfXhXgXgXaXhX|.`.D.y.i.i.i.r.q.q.q.q.q.q.q.q.q.q.q.q.q.q.q.q.q.q.q.q.q.q.q.q.N c x x J lXlXzXlXb.y.i.i.a.-XqX*Xo B.tX8X9X",
"4X`.fXsXsXfXfXfXsXfX|.`.D.y.i.i.i.u.k.k.k.k.k.k.k.k.k.k.l.l.l.l.k.h.k.k.k.k.h.h.k.k.d.d.d.d.d.z.z.z.l.h.y.i.i.a.-XtX].o B.0X9X9X",
"4X`.aXsXsXsXsXsXsXsX|.`.'.g.i.i.y.t.y.i.i.i.i.i.i.i.i.i.i.i.i.i.h.h.i.i.y.h.i.i.i.i.f.f.f.h.y.y.y.y.y.t.i.i.h.a.-XqX].o B.tX9X9X",
"rX`.fXfXfXhXhXhXfXhX|.[.=Xy.i.y.i.t.y.h.i.i.i.i.i.i.y.i.i.i.i.i.i.y.i.i.i.y.i.i.i.i.i.i.i.i.i.h.i.i.y.t.i.i.i.a.2XpX-XO Z.iXtXiX",
"OX!.sXfXsXsXfXfXsXfX|. XE.y.i.i.i.e.q.r.w.r.w.w.e.w.w.e.w.w.w.w.w.r.r.w.r.w.w.r.w.w.w.w.e.w.w.w.r.w.w.e.i.i.h.s. X$XW.X ] $X$XOX",
"l ' aXaXsXaXaXaXaXaX|.( 0 i.i.y.i.e.q.q.q.q.q.q.q.q.q.q.q.q.q.q.q.q.q.q.q.q.q.q.q.q.q.q.q.q.q.q.q.q.q.t.i.i.h.q.w M 8 . 4 M l M ",
"C ' hXfXfXhXhXhXsXhX>Xy 0 y.y.y.y.i.i.i.i.i.i.i.i.i.i.i.i.i.i.i.y.y.h.i.i.i.i.i.i.i.i.i.i.i.i.i.i.i.i.y.y.y.h.- @ @ +   + @ @ @ ",
"b ' gXfXfXgXgXgXdXgX>Xy 0 h.y.y.h.i.i.i.h.h.h.h.i.i.i.i.i.i.i.i.h.h.h.h.h.h.h.h.h.h.i.i.h.i.i.i.h.h.h.h.f.y.h.-                 ",
"b y ` ` ` ` ` _ ` _ u 0 & u.e.e.t.e.e.e.t.t.e.e.e.e.e.e.t.t.t.t.e.e.e.e.e.e.e.e.t.e.t.e.t.t.e.e.e.t.e.t.w.e.y.s 5 q 7 7 8 8 q q ",
"m b 9 8 8 7 6 6 q q q 9 j 0 0 & # # # # # # # # # # # # # # # # # # # # # # # # # # # # # # # # # # # # # & 0 q m C V Z Z Z Z A ",
"A Z Z Z C Z C C C C Z V V V M w 9 9 q q 8 8 7 6 6 6 6 6 5 5 5 5 5 5 5 5 5 5 5 5 5 6 6 6 6 6 8 6 7 7 8 8 q w M C C C C Z Z C Z C ",
"A C Z Z Z Z Z Z Z Z Z Z C Z C Z Z C V C C C C N C m m b m n m n n n n n n n n n n n n m m m N V C C C C Z A C C C C Z A Z Z Z Z ",
"Z Z Z Z Z Z Z Z Z Z B Z S S G A G G G H H H H H H E P P E P P E I E E I I P E P P P I P E I E E P E E E R H J D S S B Z Z Z Z Z ",
"Z Z C Z C Z Z Z Z Z O. .~ E W Q U U U T E T T T T T U U U T T T T T T T T U T U U U Q T T T T U U T U U T T ! Q ! %.@.S C Z Z Z ",
"Z Z Z A Z Z Z V } +X&.T Y T T U W U W U U W U W U U W W U W U W U W U W U W U W U U W U U W U U U W W U W U U U U L =.$XZ C Z Z ",
"Z Z Z A Z Z Z Z $X*.K W T Q U U U W U U W U U U U U U U U U U W W U W U U U W U U W I W W U W U U U U U W U W U U W L @X.XB Z Z ",
"Z Z Z Z Z Z Z S MX~ L W W W U U U U W U U W U U T T W W W U Q T U U U U U U W U T U U U U U W W U U U U U U W W U Q K 2.$XB Z Z ",
"Z Z Z Z Z Z Z V $X@XK U U W W W W W U U W U U U U U W T U W U U W W U W Q W T U W U Q U W U W W W W W W W W W U U L T kX+.B A Z ",
"Z Z Z Z Z Z Z B  .kX;.^ W I L L U L L U L U U L U U L U U U L U U U U U L U U L L L U U L U L L L L L L L L L U ! / %X$XB C Z Z ",
"Z Z Z Z Z Z A Z V } @.+X,.;.*.*.&./ / / / / / ^ ^ ^ / ^ ^ ^ ^ ^ ^ ! ^ ! ! ! Q ! ! ! ! ! ^ ^ / / &.&.&.*.*.*.;.,.:.+XO.B V Z Z Z ",
"Z Z Z Z Z Z Z Z A V B Z S } }  .O.O.O.O.O.O.O.O.O.O.O.@.@.@.@.:.-.-.-.:.-.-.-.-.-.-.-.:.-.@.@.@.O. . .} } } S S S M B Z Z Z Z Z ",
"Z Z Z Z Z Z Z A Z Z A A C V C C B B B B B B B B B B B V V B B B B B M V B C C C Z C C M V B C V B M V V V C V Z Z Z A Z Z Z Z Z ",
"Z Z Z Z Z Z Z Z Z Z Z A C A Z Z Z A A A A A A A A A A A A Z A A A Z A Z A Z Z Z Z Z A A A A A A A A A Z Z Z Z Z Z Z Z Z Z Z Z Z ",
"Z Z Z Z Z Z Z Z Z Z Z Z A Z C Z Z Z Z Z Z Z Z Z Z Z Z Z Z Z Z Z Z Z A A A A Z A Z Z Z Z Z Z Z Z A Z Z Z Z Z Z Z Z Z Z Z Z Z Z Z ",
"Z G Z A Z A Z Z Z Z Z Z Z A A A A Z Z A Z Z Z Z Z Z Z Z A V A A A A A Z A Z Z Z Z A A Z A Z Z Z Z Z Z Z A Z Z A Z Z Z Z Z Z Z Z ",
"Z Z Z Z Z Z A Z A Z A Z Z Z A A Z Z Z Z Z Z Z Z A Z Z Z Z A Z Z A Z Z Z Z Z Z A Z Z Z Z Z Z A Z Z A Z Z Z Z A Z A A Z Z Z Z Z Z "
};
