/* XPM */
static char *_cfe0629aa534322efeee0914e86134ec7QYZKhEoVGUxXuj[] = {
/* columns rows colors chars-per-pixel */
"64 64 225 2 ",
"   c #060508",
".  c #0C0B0A",
"X  c #12110F",
"o  c #0A0913",
"O  c #110E16",
"+  c #001712",
"@  c #0B1216",
"#  c #151719",
"$  c #1B1B1C",
"%  c #271909",
"&  c #241E18",
"*  c #26221C",
"=  c #322219",
"-  c #322A1A",
";  c #0C1624",
":  c #141B22",
">  c #171C24",
",  c #1C2228",
"<  c #0A3526",
"1  c #242322",
"2  c #292929",
"3  c #302E30",
"4  c #373736",
"5  c #493313",
"6  c #663F0B",
"7  c #483724",
"8  c #413E3C",
"9  c #0C4429",
"0  c #13482B",
"q  c #0F5A3A",
"w  c #195634",
"e  c #314E30",
"r  c #116935",
"t  c #0B763E",
"y  c #13733D",
"u  c #1B743D",
"i  c #147E3E",
"p  c #2C653F",
"a  c #277838",
"s  c #76460E",
"d  c #764A11",
"f  c #7C5314",
"g  c #765829",
"h  c #466627",
"j  c #717335",
"k  c #3D3F40",
"l  c #423F42",
"z  c #3F4B47",
"x  c #186F44",
"c  c #067340",
"v  c #097540",
"b  c #087843",
"n  c #147640",
"m  c #117B40",
"M  c #2B6546",
"N  c #346645",
"B  c #316548",
"V  c #2A7A43",
"C  c #397B42",
"Z  c #2B6273",
"A  c #454543",
"S  c #47484A",
"D  c #4B4C4D",
"F  c #51514F",
"G  c #495253",
"H  c #4B5D56",
"J  c #515453",
"K  c #575A58",
"L  c #5B5B5B",
"P  c #48685B",
"I  c #55665D",
"U  c #437854",
"Y  c #497D54",
"T  c #59755F",
"R  c #74764D",
"E  c #6A7B59",
"W  c #495C65",
"Q  c #4D6C69",
"!  c #596E68",
"~  c #4E7167",
"^  c #5E716A",
"/  c #597D72",
"(  c #646563",
")  c #686767",
"_  c #6D6D6D",
"`  c #756A6B",
"'  c #62726A",
"]  c #687569",
"[  c #7B7465",
"{  c #73726F",
"}  c #6D6673",
"|  c #6D6E76",
" . c #736E70",
".. c #6E7274",
"X. c #66777E",
"o. c #6C7179",
"O. c #737373",
"+. c #787475",
"@. c #757778",
"#. c #7B7B7A",
"$. c #824907",
"%. c #875A16",
"&. c #8F691A",
"*. c #A56B18",
"=. c #AE7619",
"-. c #896828",
";. c #906529",
":. c #946E35",
">. c #B27831",
",. c #A2424C",
"<. c #947A53",
"1. c #A17946",
"2. c #827A68",
"3. c #8F7775",
"4. c #807F7F",
"5. c #19833D",
"6. c #1F913E",
"7. c #23853E",
"8. c #2B843C",
"9. c #2B8A3F",
"0. c #378B3D",
"q. c #25923B",
"w. c #2A963D",
"e. c #2D993E",
"r. c #3C953E",
"t. c #339D3D",
"y. c #4D8E37",
"u. c #459A3E",
"i. c #4B9B3D",
"p. c #6D8E2E",
"a. c #4DA13E",
"s. c #54A43D",
"d. c #5BA63D",
"f. c #58A838",
"g. c #5DA93D",
"h. c #67A43C",
"j. c #64AB3D",
"k. c #6AAD3C",
"l. c #70A836",
"z. c #6DB13C",
"x. c #73B13B",
"c. c #7BB639",
"v. c #158241",
"b. c #1A8641",
"n. c #2D8644",
"m. c #378941",
"M. c #398845",
"N. c #299941",
"B. c #389440",
"V. c #438D47",
"C. c #439341",
"Z. c #499940",
"A. c #79864D",
"S. c #768358",
"D. c #71B348",
"F. c #718D6C",
"G. c #B78D17",
"H. c #BA931C",
"J. c #B1A21C",
"K. c #8B902D",
"L. c #B98724",
"P. c #AB8F39",
"I. c #9DA02B",
"U. c #80B63C",
"Y. c #85B93C",
"T. c #8BBC3B",
"R. c #91BF3B",
"E. c #D18C18",
"W. c #E99415",
"Q. c #EB9A19",
"!. c #DBA818",
"~. c #E5A61A",
"^. c #F1A417",
"/. c #EEB71F",
"(. c #EEBA1F",
"). c #F6B617",
"_. c #F3BC1E",
"`. c #D58A25",
"'. c #C7A828",
"]. c #D8AE22",
"[. c #EAB620",
"{. c #F6BD20",
"}. c #8FC13C",
"|. c #95C23C",
" X c #F8C21D",
".X c #FBD419",
"XX c #FCD81D",
"oX c #F9D324",
"OX c #898E53",
"+X c #AB8449",
"@X c #B08D4C",
"#X c #BDAA41",
"$X c #89856A",
"%X c #908B61",
"&X c #90A76F",
"*X c #C8AD41",
"=X c #1D688B",
"-X c #2D718B",
";X c #1070A8",
":X c #137FBD",
">X c #737981",
",X c #067BC7",
"<X c #1D84BC",
"1X c #2585B5",
"2X c #4A8597",
"3X c #779094",
"4X c #7EA38A",
"5X c #1683C2",
"6X c #3393C7",
"7X c #389BD5",
"8X c #3BA0DE",
"9X c #299AE5",
"0X c #3AA3E3",
"qX c #439DD1",
"wX c #49A9DA",
"eX c #50AFDF",
"rX c #47AFEA",
"tX c #4CB2E9",
"yX c #52B3E3",
"uX c #828181",
"iX c #8A8888",
"pX c #88AA83",
"aX c #85AAA1",
"sX c #AED19B",
"dX c #D1E4C4",
/* pixels */
"O.O.O.O.O.O.O.O.O.O.O.O.O.O.O.O.O.O.O.O.O.O.O.O.O.O.O.O.O.O.O.O.O.O.O.O.O.O.O.O.O.O.O.O.O.O.O.O.O.O.O.O.O.O.O.O.O.O.O.O.O.O.O.O.",
"O.O.O.O.O.O.O.O.O.O.O.O.O.O.O.O.O.O.O.O.O.O.O.O.O.O.O.O.O.O.O.O.O.O.O.O.O.O.O.O.O.O.O.O.O.O.O.O.O.O.O.O.O.O.O.O.O.O.O.O.O.O.O.O.",
"O.O.O.O.O.O.O.O.O.O.O.O.O.O.O.O.O.O.O.O.O.O.O.O.O.O.O.O.O.O.O.O.O.O.O.O.O.O.O.O.O.O.O.O.O.O.O.O.O.O.O.O.O.O.O.O.O.O.O.O.O.O.O.O.",
"O.O.O.O.O.O.O.O.O.O.O.O.O.O.O.O.O.O.O.@.O.O.O.O.O.O.O.O.O.O.O.O.O.O.O.O.O.O.O.O.O.O.O.O.O.O.O.O.O.O.O.O.O.O.O.O.O.O.O.O.O.O.O.O.",
"O.O.O.O.O.O.O.O.O.O.O.O.O.O.O.O.O.O.O.O.O.O.O.O.O.O.O.O.O.O.O.O.O.@.O.O.O.O.O.O.O.O.O.O.O.O.O.O.O.O.O.O.@.O.O.O.O.O.O.O.O.O.O.O.",
"O.O.O.O.O.O.O.O.O.O.O.O.O.O.O.O.O.O.O.O.O.O.O.O.O.O.O.O.O.O.@.O.O.O.O.O.O.O.O.O.O.O.O.O.O.O.O.O.O.O.O.O.O.O.O.O.O.O.O.O.O.O.O.O.",
"O.O.O.O.O.O.O.O.O.O.O.O.O.O.O.O.O.O.O.O.O.O.O.O.O.O.O.O.O.O.O.O.O.O.O.O.O.O.O.O.O.O.O.O.O.O.O.O.O.O.O.O.O.O.O.O.O.O.O.O.O.O.O.O.",
"O.O.O.O.O.O.O.O.O.O.O.O.O.O.O.O.O.O.O.O.O.O.O.O.O.O.O.O.O.O.O.O.O.O.O.O.O.O.O.O.O.O.@.O.O.O.O.O.O.O.O.O.O.O.O.O.O.O.O.O.O.@.O.O.",
"O.O.O.O.O.O.O.O.O.O.O.O.O.O.O.O.O.O.O.O.O.O.O.O.O.O.O.O.O.O.O.O.O.O.O.O.O.O.O.O.O.O.O.O.O.O.O.O.O.O.O.O.O.O.O.O.O.O.O.O.O.O.O.O.",
"O.O.O.O.O.O.O.O.@.O.O.O.O.O.O.O.O.O.O.O.O.O.O.O.O.O.O.O.O.O.O.O.O.O.O.O.O.O.O.O.O.O.O.@.O.O.O.O.O.O.O.O.O.O.O.O.O.O.O.O.O.O.O.O.",
"O.O.O.O.O.O.O.O.O.O.O.O.O.O.O.O.O.O.O.O.O.O.O.O.O.O.O.O.O.O.O.O.O.O.O.O.O.O.O.O.O.O.O.O.O.O.O.O.O.O.O.O.O.O.O.O.O.O.O.O.O.O.O.O.",
"O.O.O.O.O.O.O.@.O.O.O.O.O.O.O.O.O.O.O.O.O.O.O.O.O.O.O.O.O.O.O.@.O.O.O.O.O.O.O.O.O.O.O.O.O.O.O.O.O.O.O.O.O.O.O.O.O.O.O.O.O.O.O.O.",
"O.O.O.O.O.O.O.O.O.O.O.O.O.O.O.O.O.O.O.O.O.O.O.O.O.O.O.O.O.O.O.O.O.O.O.O.O.O.O.O.O.O.O.O.O.O.O.O.O.O.O.O.O.O.O.O.O.@.O.O.O.O.O.O.",
"O.O.O.O.O.O.O.O.O.O.O.O.O.O.O.O.O.O.O.O.O.O.O.O.O.O.O.O.O.O.O.O.O.O.O.O.O.O.O.O.O.O.O.O.O.O.O.O.O.O.O.O.O.O.O.O.O.O.O.O.O.O.O.O.",
"O.O.O.O.O.O.O.O.O.O.O.O.O.O.O.O.O.O.O.O.O.O.O.O.O.O.O.O.O.O.O.O.O.O.O.O.O.O.O.O.O.O.O.O.O.O.O.O.O.O.O.O.O.O.O.O.O.O.O.O.O.O.O.O.",
"O.O.O.O.O.O.O.O.O.O.O.O.O.O.O.O.O.O.@.O.O.O.O.O.O.O.O.O.O.O.O.O.O.O.O.O.O.O.O.O.O.O.O.O.O.O.O.O.O.O.O.O.O.O.O.O.O.O.O.O.O.O.O.O.",
"O.O.O.O.O.O.O.O.O.O.O.O.O.O.O.O.O.O.O.O.O.O.O.O.O.O.O.O.O.O.O.O.O.O.O.O.O.O.O.O.O.O.O.O.O.O.O.O.O.O.O.O.O.O.O.O.O.O.O.O.O.O.O.O.",
"O.O.O.O.O.O.O.O.O.O.O.O.O.O.O.O.O.O.O.O.O.O.O.O.O.O.O.O.O.O.O.O.O.O.O.O.O.O.O.O.O.O.O.O.O.O.O.O.O.O.O.@.O.O.O.O.O.O.O.O.O.O.O.O.",
"O.O.O.O.O.O.O.O.O.O.O.O.O.O.O.O.O.O.O.O.O.O.O.O.O.O.O.O.O.O.O.O.O.O.O.O.O.O.O.O.O.O.O.O.O.O.O.O.O.O.O.O.O.O.O.O.O.O.O.O.O.O.O.O.",
"O.O.O.O.O.@.O.O.O.O.O.O.O.O.O.O.O.O.O.O.O.O.O.O.O.O.O.O.O.O.O.O.O.O.O.O.O.O.O.O.O.O.O.O.O.O.O.O.O.O.O.O.O.O.O.O.O.O.O.O.O.O.O.O.",
"O.O.O.O.O.O.O.O.O.O.O.O.O.O.O.O.O.O.O.O.O.O.O.O.O.O.O.O.O.O.O.O.O.O.O.O.O.O.O.O.O.O.O.O.O.O.O.O.O.O.O.O.O.O.O.O.O.O.O.O.O.O.O.O.",
"O.O.O.O.O.O.O.O.O.O.O.O.O.O.O.O.O.O.O.O.O.O.O.O.O.O.O.O.O.O.O.O.O.O.O.O.O.O.O.O.O.O.O.O.O.O.O.O.O.O.O.O.O.O.O.O.O.O.O.O.O.O.O.O.",
"O.O.O.O.O.O.O.O.O.O.O.O.O.O.O.O.O.@.O.O.O.O.O.O.O.O.O.O.O.O.O.O.O.O.O.O.O.O.O.O.O.O.O.O.O.O.O.O.O.O.O.O.O.O.O.O.O.@.O.O.O.O.O.O.",
"O.O.O.O.O.O.O.O.O.O.O.O.O.O.O.O.O.O.O.O.O.O.O.O.O.O.O.O.O.O.O.O.O.O.O.O.O.O.O.O.O.O.O.O.O. .O.O.O.O.O.O.O.O.O.{ O.O.O.O.O.O.O.O.",
"O.O.O.O.O.O.O.O.O.O.O.O.O.O.O.O.O.O.O.O.O.O.O.O.O.O.O.O.O.O.O.O.O.O.O.O...O.O.O. .O.O.O.| { O.O.O. .O.O.O.O.O.O.O.O.O.O.O.O.O.O.",
"O.O.O.O.O.O.O.O.O.O.O.O.O.O.O.O.O.O.O.O.O.O...{ O.O.+.O.+.O.O.+.O.O.+.+.O.+.O.O.+.+.+.+.O.+.+.O.+.+.O. .+.O.O.O.O.{ O.O.O.O.O.O.",
"O.O.O.O.O.O.O.O.O.O.O.O.O.O.O.O.O.O.O.O.O.O.O._ ' ' ' ' ' ] ' ' ' ' ' ' ^ ' ' ' ! ' ! ! ! U U Y U Y Y Y U I O.O.O.O...O.O.O.O.O.",
"O.O.O.O.O.O.O.O.O.O.O.O.O.O.{ O.O.O.O.O.O.O.+.T n B.C.y.m.n m.C.C.Z.C.C.Z.a y V.C.C.C.V.C.y d.U.f.0.c.c.x.C I +.O.O.{ O.O.O.O.O.",
"O.O.O.O.O.O.O.O.O.O.O.O.O.O.O...O...| | | | O.! m Y.T.R.x.c h.R.T.T.}.}.}.w.m Y.R.T.R.R.|.B.m.}.|.Z.k.R.h.B.M I O.O.{ ..O.O.O.O.",
"O.O.O.O.O.@.O.O.O.O.O.O.O...o.O.$X$X%X%X%X%X2.! 5.Y.T.T.D.c d.T.Y.Y.Y.Y.Y.n.m c.T.Y.Y.Y.T.x.y y.l.k.V 0.0.k.j.M { O...O.O.O.O.O.",
"O.O.O.O.O.O.O.O.O.O.O.O.O.[ *XoX.XXXXX.X.X.X@XQ i Y.Y.T.j.t s.R.Y.T.Y.T.}.n.m Y.T.Y.T.Y.T.x.y q M r.0.Z.}.T.}.V...{ O.O.O.O.O.O.",
"O.O.O.O.O.O.O.O.O.O.O.O.X.#XG.&.j -.j A.R G.@X! 5.c.T.R.k.t d.R.T.T.Y.Y.}.n.m Y.T.Y.T.T.R.c.t u 8.a U.B.x.}.}.0.z O.O.O.O.O.O.O.",
"O.O.O.O.O.O.O.O.O.O.+.o.4XOX1X7X7X8X7XwX9XE >.Q 5.k.x.x.g.c i.c.z.x.x.x.x.7.i k.x.k.x.x.x.j.m m 0.0.a y.u.c.c.M.G { O.O.O.O.O.O.",
"O.O.O.O.O.O.O.O...O.` 3X&X2XtXtXyXyXyXqX5XE >.Q i g.h.j.a.v u.j.g.j.j.d.j.7.i g.j.j.j.g.j.s.v B.a g.Z.r u s.j.M.H { O.O.O.O.O.O.",
"O.O.O.O.O.O.O.O.O.O.F.pXS.0XeXeXyXwX6X1X<XE >.Q m g.j.k.s.c u.k.j.j.j.j.j.7.i g.j.j.j.j.j.d.t u.0.8.k.i.r a j.M.H { O.{ O.O.O.O.",
"O.O.O.O.O.O.O._ _  .aXOX1XtXwXeXwX1X1X1X:XS.$.+ v.g.j.j.s.c u.k.j.j.j.j.j.n.m g.j.j.j.j.k.d.c u.d.y a 0.9.u 9.V P | O.O.O.O.O.O.",
"O.O.O.O.O.O.@.F A 3X&X/ rXeXeX7X5X5X5X<X,XS.$.+ v.g.j.j.a.c u.k.j.j.j.j.j.7.m g.j.j.j.j.j.g.t u.z.8.a g.g.f.g.M.H { O.O.O.O.O.O.",
"O.O.O.O.O.{ +.J l aXR qXyXwX6X=XI E T T P P.s + v.j.j.j.s.v u.k.j.j.j.j.k.7.v.g.j.j.j.j.j.s.b r.k.s.y s.k.sXD.M.H { O.{ O.O.O.O.",
"O.O.O.O.O.O.@.S W &X2XtX7X1X;X&.).p.J.^.E.).d + v.g.k.k.s.c i.k.j.j.j.j.k.7.m j.k.j.j.j.k.g.t u.k.k.8.8.D.dXD.M.H ..O...O.O.O.O.",
"O.O.O.O.{ O.O.A T F.0X6X<X5XT ).l.I.p.].[.{.s + b.s.s.g.i.v r.g.s.s.s.s.g.b.m s.s.s.d.s.f.a.t t.g.f.Z.y i.f.g.M.H ..O.O.O.O.O.O.",
"O.O.O.O.O.O.{ ' '.S.-X-X-XZ H. Xp.K.p.'.[.{.s @ i q.q.q.q.t 7.w.q.w.e.w.t.b.m N.e.w.w.w.6.N.c 6.6.N.B.m 7.t.B.n.H { O.{ O.O.O.O.",
"O.O.O.O.O.O.| [ '.L.!.].!.!._././.'.].{._.[.s # H p p p N B B N B 0 9 w w 9 9 0 0 0 < w j h e h j 0 9 9 r N.t.n.H { O...O.O.O.O.",
"O.O.O.O.O.{ ..` L.[._. X_._./._.!.=.;.;.`.=.X X ,.P.%X} ` } } +.) >   3 3 o O O O o = *.6 = = = d *.& o < a t.n.H _ ..O.O.O.O.O.",
"O.O.O.O.O.{ { 3.`. X[.(.(./._.E.5 > @ @ : -.%.  ( 4.#.4.#.F.uXuX` > # l , : : > : 1 *.5 > 1 $ $ , 5 *.# ; p r u H { O.O.O.O.O.O.",
"O.O.O.O.O.O.O.` `._./.(.{.{.^.7 # - K K 1 @ ;.5 z iX>X4.uXuXuXuX_ 4 k k > , > , ; g d : * 4 L A * # f j G ] t x { O...O.O.O.O.O.",
"O.O.O.O.{ O. .<.~.[./.(./.).&.X 2 ( ( ( ( $ = 6 2 uX4.4.uXuXF.uXK , 2 > ; : : ; ; f % # 8 { L _ A @ 5 +X>XuXP ~ O.O.{ O.O.O.O.O.",
"O.O.O.O.O.O.| +XQ.[./.[.[.).:.$ 3 ) 4 2 ( 1 X R (  .O.+.+.+.O.O.L S S S D D D D D :.* X D I $ J F . - 1.O.O.+.+.O...O.O.O.O.O.O.",
"O.O.O.O.O.O.o.+XW.Q.Q.Q.W.`.%X2 $ F J J F $ 2  .O.O.O.+.| } O.O.@.#.#.@.@.#.@.#.@.@.I X 4 K J K 4 . D @._ O...{ O.O.O.O.O.O.O.O.",
"O.O.O.O.{ O...[ 1.1.1.1.1.2.O.F . * S A * . F +.{ O.O.O.O.O.O.O.O...{ { | { { ..{ O.O.3 X 4 D 4 O 1 _ O.O.O.O.O.O.O.O.O.O.O.O.O.",
"O.O.O.O...O.O.O.o.o.o.o.o.O.O.+.A # . . X A O.O.O.O.O.O.O.O.O.O.O.O.O.O.O.O.O.O.O.O.O.) 2 . . . 1 L O.O.O.O.O.O.O.O.O.O.O.O.O.O.",
"O.O.O.O.O.O.O.O.O.{ { { { O.O.{ +.) S S ) @.O.O.O.{ O.O.O.O.O.O.O.O.O.O.O.O.O.O.O.O.O.O.O.K A J O.O.O.O.O.O.O.O.O.O.O.O.O.O.O.O.",
"O.O.O.O.O.O.O.O.O.O.O.O.O.O.O.O.O.O.#.O.O.O.O.O...O.O.O.O.O.O.O.O.O.O.O.O.O.O.O.{ O.O.O.O.+.#.O.O.O.O.O.O.O.O.O.O.O.O.O.O.O.O.O.",
"O.O.O.O.O.O.O.O.O.O.O.O.O.O.{ O...O.O...O.O.O.O.{ O.O.O.O.O.O.O.O.O.O.O.O.O.O.O.O...O.O.O.O...O.O.O.O.O.O.O.O.O.O.O.O.O.O.O.O.O.",
"O.O.O.O.O.O.O.O.O.O.O.O.O.O.O.O.O.O.O.{ O.O.O.O.O.O.O.O.O.O.O.O.O.O.O.O.O.O.O.O.O.O.O.{ O.O.O.O.O.O.O.O.O.O.O.O.O.O.O.O.O.O.O.O.",
"O.O.O.O.O.O.O.O.O.O.O.O.O.O.O.O.O.O.O.O.O.O.O.O.O.O.O.O.O.O.O.O.O.O.O.O.O.O.O.O.O.O.O.O.O.O.O.O.O.O.O.O.O.O.O.O.O.O.O.O.O.O.O.O.",
"O.O.O.O.O.O.O.O.O.O.O.O.O.O.O.O.O.O.O.O.O.O.O.O.O.O.O.O.O.O.O.O.O.O.O.O.O.O.O.O.O.O.O.O.O.O.O.O.O.O.O.O.O.O.O.O.O.O.O.O.O.O.O.O.",
"O.O.O.O.O.O.O.O.O.O.O.O.O.O.O.O.O.O.O.O.O.O.O.O.O.O.O.O.O.O.O.O.O.O.O.O.O.O.O.O.O.O.O.O.O.O.O.O.O.O.O.O.O.O.O.O.O.O.O.O.O.O.O.O.",
"O.O.O.O.O.O.O.O.O.O.O.O.O.O.O.O.O.O.O.O.O.O.O.@.O.O.O.O.O.O.O.O.O.O.O.O.O.O.O.O.O.O.O.O.O.O.O.O.O.O.O.O.O.O.O.O.O.O.O.O.O.O.O.O.",
"O.O.O.O.O.O.O.O.O.O.O.O.O.O.O.O.O.O.O.O.O.O.O.O.O.O.O.O.O.O.O.O.O.O.O.O.O.O.O.O.O.O.O.O.O.O.O.O.O.O.O.O.O.O.O.O.O.O.O.O.O.O.O.O.",
"O.O.O.O.O.O.O.O.O.O.O.O.O.O.O.O.O.O.O.O.O.O.O.O.O.O.O.O.O.O.O.O.O.O.O.O.O.O.O.O.O.O.O.O.O.O.O.O.O.O.O.O.O.O.O.O.O.O.O.O.O.O.O.O.",
"O.O.O.O.O.O.O.O.O.O.O.O.O.O.O.O.O.O.O.O.O.O.O.O.O.O.O.O.O.O.O.O.O.O.O.O.O.O.O.O.O.O.O.O.O.O.O.O.O.O.O.O.O.O.O.O.O.O.O.O.O.O.O.O.",
"O.O.O.O.O.O.O.O.O.O.O.O.O.O.O.O.O.O.O.O.O.O.O.O.O.O.O.O.O.O.O.O.O.O.O.O.O.O.O.O.O.O.O.O.O.O.O.O.O.O.O.O.O.O.O.O.O.O.O.O.O.O.O.O.",
"O.O.O.O.O.O.O.O.O.O.O.O.O.O.O.O.O.O.O.O.O.O.O.O.O.O.O.O.O.O.O.O.O.O.O.O.O.O.O.O.O.O.O.@.O.O.O.O.O.O.O.O.O.O.O.O.O.O.O.O.O.O.O.O.",
"O.O.O.O.O.O.O.O.O.O.O.O.O.O.O.O.O.O.O.O.O.O.O.O.O.O.O.O.O.O.O.O.O.O.O.O.O.O.O.O.O.O.O.O.O.O.O.O.O.O.O.O.O.O.O.O.O.O.O.O.O.O.O.O."
};
