/* XPM */
static char *e2e292cb438a41a4e921e55ad32517e7gmNlv7vHaWSSjWvG[] = {
/* columns rows colors chars-per-pixel */
"64 64 215 2 ",
"   c #080608",
".  c #0C0C0B",
"X  c #100F0D",
"o  c #11110F",
"O  c #0B0A13",
"+  c #120E16",
"@  c #001712",
"#  c #141313",
"$  c #181A1B",
"%  c #241B12",
"&  c #2C200F",
"*  c #2A221B",
"=  c #32261B",
"-  c #0C1724",
";  c #141A22",
":  c #141B24",
">  c #1A1D23",
",  c #1C2128",
"<  c #0B3525",
"1  c #232322",
"2  c #2A2929",
"3  c #322D32",
"4  c gray19",
"5  c #373837",
"6  c #4A3313",
"7  c #663F0B",
"8  c #483824",
"9  c #423F3C",
"0  c #0D4429",
"q  c #14482B",
"w  c #0F5B3A",
"e  c #1A5635",
"r  c #2B5528",
"t  c #126A36",
"y  c #0B763D",
"u  c #14733D",
"i  c #1B763D",
"p  c #137C3F",
"a  c #277939",
"s  c #794B10",
"d  c #794B11",
"f  c #745629",
"g  c #466527",
"h  c #717433",
"j  c #3F4141",
"k  c #3F564D",
"l  c #077340",
"z  c #0A7540",
"x  c #087943",
"c  c #187242",
"v  c #117C41",
"b  c #276645",
"n  c #346646",
"m  c #326649",
"M  c #287944",
"N  c #3B7D43",
"B  c #2D6373",
"V  c #434343",
"C  c #464749",
"Z  c #4A4C4C",
"A  c #50504F",
"S  c #4C4F56",
"D  c #495D55",
"F  c #525453",
"G  c #575A58",
"H  c #5B5B5B",
"J  c #605F5F",
"K  c #48655B",
"L  c #536A5C",
"P  c #477B55",
"I  c #57745D",
"U  c #78764A",
"Y  c #6B7C58",
"T  c #495D67",
"R  c #4E6D6A",
"E  c #596C66",
"W  c #547166",
"Q  c #5E7169",
"!  c #646463",
"~  c #69686B",
"^  c #6C6C6C",
"/  c #7B6767",
"(  c #736C6E",
")  c #637369",
"_  c #6D726E",
"`  c #7B7566",
"'  c #73726F",
"]  c #6D6673",
"[  c #6C6E75",
"{  c #746D70",
"}  c #6E7173",
"|  c #6C727A",
" . c #737373",
".. c #787475",
"X. c #747678",
"o. c #7B7B7A",
"O. c #844907",
"+. c #895B16",
"@. c #986314",
"#. c #A66B18",
"$. c #AF761A",
"%. c #926D2D",
"&. c #847226",
"*. c #B27831",
"=. c #A2424C",
"-. c #957A53",
";. c #A27A46",
":. c #827A68",
">. c #807F7F",
",. c #907776",
"<. c #16813F",
"1. c #1F863C",
"2. c #1F913F",
"3. c #21833D",
"4. c #2C853D",
"5. c #368B3D",
"6. c #25923C",
"7. c #2A953D",
"8. c #2E9A3F",
"9. c #38983E",
"0. c #36A03D",
"q. c #438B39",
"w. c #41943E",
"e. c #459A3E",
"r. c #4B9C3E",
"t. c #529E3C",
"y. c #738F2D",
"u. c #628C32",
"i. c #4CA13F",
"p. c #54A43D",
"a. c #5BA63D",
"s. c #59A839",
"d. c #5DA93D",
"f. c #6AA63A",
"g. c #64AB3D",
"h. c #6AAD3D",
"j. c #6CB13D",
"k. c #73B13B",
"l. c #7BB63A",
"z. c #158242",
"x. c #1B8742",
"c. c #2B8344",
"v. c #268840",
"b. c #2D8C40",
"n. c #378944",
"m. c #398A44",
"M. c #2A9841",
"N. c #369541",
"B. c #49874F",
"V. c #449440",
"C. c #499840",
"Z. c #798554",
"A. c #72B449",
"S. c #718D6D",
"D. c #B78F1A",
"F. c #AFA21D",
"G. c #869A30",
"H. c #B58930",
"J. c #9EA12B",
"K. c #80B53B",
"L. c #84B93C",
"P. c #8BBC3B",
"I. c #91BF3B",
"U. c #D18C18",
"Y. c #E99819",
"T. c #F19814",
"R. c #DCA918",
"E. c #E6A71A",
"W. c #F2A518",
"Q. c #EEB61F",
"!. c #EEBA1E",
"~. c #F7B617",
"^. c #F3BC1E",
"/. c #D18724",
"(. c #C8A929",
"). c #D8AF23",
"_. c #EBB421",
"`. c #EBB920",
"'. c #F6BD20",
"]. c #94C23C",
"[. c #F9C21E",
"{. c #FCD51A",
"}. c #F9D324",
"|. c #8A8F53",
" X c #AD8A4D",
".X c #BEAB42",
"XX c #8D8762",
"oX c #918B61",
"OX c #91A870",
"+X c #C9AE42",
"@X c #1D688C",
"#X c #2E728B",
"$X c #1070A8",
"%X c #777B82",
"&X c #067CC8",
"*X c #1A82BC",
"=X c #2686B5",
"-X c #4B8497",
";X c #778F94",
":X c #7FA38B",
">X c #1783C2",
",X c #3393C7",
"<X c #399CD7",
"1X c #2A9CE7",
"2X c #3AA3E4",
"3X c #46A5D4",
"4X c #4DADDF",
"5X c #50AFDE",
"6X c #48AFEA",
"7X c #4CB2E9",
"8X c #52B3E3",
"9X c #828181",
"0X c #89AB85",
"qX c #B0D29E",
"wX c #D1E4C4",
/* pixels */
" . . . . . . . . . . . . . . . . . . . . . . . . . . . . . . . . . . . . . . . . . . . . . . . . . . . . . . . . . . . . . . . .",
" . . . . . . . . . . . . . . . . . . . . . . . . . . . . . . . . . . . . . . . . . . . . . . . . . . . . . . . . . . . . . . . .",
" . . . . . . . . . . . . . . . . . . . . . . . . . . . . . . . . . . . . . . . . . . . . . . . . . . . . . . . . . . . . . . . .",
" . . . . . . . . . . . . . . . . . . . . . . . . . . . . . . . . . . . . . . .X. . . . . . . . . . . . . . . . . . . . . . . . .",
" . . . . . . . . . . . . . . . . . . . . . . . . . . .X. . . . . . . . . . . . . . . . .}  . . . . . . . . . . . . . . . . . . .",
" . . . . . . . . . . . . . . . . . . . . . . . . . . . . . . . . . . . . . .} '  . . .' {  . .[  . .'  . . . . . . . . . . . . .",
" . . . . . . . . . . . . . . . . . . . . . . . . . . . . . . . . . .'  .o.o.X...( }  .}  .| [ [ | (  . . . . . . . . . . . . . .",
" . . . . . . . . . . . . . . . . . . . . . . . . . . . . . . . . . ...^ Z F Z Z ) ` / ,./ -. X X:.} ..'  . . . . . . . . . . . .",
" . . . . . . . . . . . . . . . . . . . . . . . . . . . . . . . .}  . .^ j j T R (.(.*././.E.Y.Y.;.|  . . . . . . . . . . . . . .",
" . . . . . . . . . . . . . . . . . . . . . . . . . . . . . . .'  . .' ( ;X:XOXS.Z.D.'.^.[.!._.Y.;.| '  . . . . . . . . . . . . .",
" . . . . . . . . . . . . . . . . . . . . . . . . . . . . . . . .X.' | ;XOXZ.-X2X#XR.'.`.!.!._.Y.;.| .. . . . . . . . . . . . . .",
" . . .X. . . . . . . .X. . . . . . . . . . . . . . . . . .}  .[ } ;X0X|.S.3X7X,X#XE.'.`.^.'._.T.;.|  . . . . . . . . . . . . . .",
" . . . . . . . . . . . . . . . . . . . . . . . . . . . . . .} %X:X|.Z.=X7X7X,X=X#XR.'.!.!.!._.Y.;.| } }  . . . . . . . . . . . .",
" . . . . . . . . . . . . . . . . . . . . . . . . . . . ...[ ` .X|.-X6X7X8X4X=X*XB R.'.!.^.'.~./.-.|  .'  . . . . . . . . . . . .",
" . . . . . . . . . . . . . . . . . . . . . . . . . . . ...[ +XD.,X7X8X4X5X,X$XK D.^.`.`.E.@.%.oXX. . . . . . . . . . . . . . . .",
" . . . . . . . . . . . . . . . . . . . . . . . . . . .' { { }.&.<X8X4X8X<X@XG.W.[.[.^.U.8 + ; 3 F  .' }  . . . . . . . . . . . .",
" . . . . . . . . . . . . . . . . . . . . . . . . . . . .[ :.}.G.<X8X4X3X*XL ~.G.u.`.Y.8 $ = 4 $ . C o.'  .'  . . . . . . . . . .",
" . . . . . . . . . . . . . . . . . . . . . . . . . . . .[ XX}.&.<X8X4X=X*XY u.J.G.(.$.> 2 ! ! F 1 $ ! .. . . . . . . . . . . . .",
" . . . . . . . . . . . . . . . . . . . . . . . . . . . .[ oX{.h 2X8X,X=X*XI F.y.u.).%.O G ! 5 F V   Z o. . . . . . . . . . . . .",
" . . . .X. . . . . . . . . . . . . . . . . . . . . . .' [ oX{.U 3X3X=X=X*XI W.).(.~.%.# G ! 2 F V   C o._  . . . . . . . . . . .",
" . . . . . . . . . . . . . . . . . . . . . . .X. . . . .[ oX{.U 1X>X>X*X&XR U.Q.[.^.H.$ 2 ! ! F 2 # ! .. . . . . . . . . . . . .",
" . . . . . . . . . . . . . . . . . . . . . . . . . . . .[ oX{.H.Y Y Y Z.Y H.~.^.'._.$.f O 1 2 $ . V X. .} '  . . . . . . . . . .",
" . . . . . . . . . . . . . . . . . . . . . . . . . . ...{ :..X*.*.*.*.s O.O.s d d d & @.+.= $ 2 A ..'  . . . . . . . . . . . . .",
" . . . . . . . . . . . . . . . . . . . . . . . . . .} E W W R R R R R @ @ @ @ @ @ $ X   6 7 U X...' '  . . . . . . . . . . . . .",
" . . . . . . . . . . . . . . . . . . . . . . . . ...Q p p <.<.<.z.z.<.z.z.z.z.z.y n =.~ C 2 !  .}  . . . . . . . . . . . . . . .",
" . . . . . . . . . . . . . . . . . . . . . . . . ...Q w.L.K.L.L.h.a.d.g.d.d.g.a.6.n H.9X9X;X^ '  . . . . . . . . . . . . . . . .",
" . . . . . . . . . . . . . . . . . . . . . .X. . ...Q e.I.L.P.P.k.g.g.g.g.g.g.a.6.n -.>.>.>..... . . . . . . . . . . . . . . . .",
" . . . . . . ... . . . . . . . . .X. . . . . . . ...Q C.I.P.P.I.k.g.g.g.h.g.g.s.6.m ] 9X>.>...(  . . . . . . . . . . . . . . . .",
" . . . . . . . . . . . . . . . . . . . . . . . . ...) m.k.j.k.A.a.p.i.p.p.i.p.i.v.m ' 9X9X9X . . . . . . . . . . . . . . . . . .",
" . . ... . . . . . . . . . . . . . . . . . . . .'  .) u l l z v l l z y z z l z y m ( S.9XS. . . . . . . . . . . . . . . . . . .",
" . . .X. . . . . . . . . . . . . . . . . . . . .} ..) 5.a.a.a.C.r.C.e.e.e.e.C.N.3.m ] >.>.>. . . . . . . . . . . . . . . . . . .",
" . . . . . . . . . . . . . . . . . . . . . . . . ...Q e.].I.P.I.l.g.h.h.h.h.j.d.7.m { 9X9X9X . . . . . . . . . . . . . . . . . .",
" . . . . . . . . . . . . . . . . . . . . . . . . ...) V.P.L.L.L.j.g.g.g.g.a.g.p.6.n ~ { ^ H H X.[  . . . . . . . . . . . . . . .",
" . . . . . . . . . . . . . .X. . . . . . . . . .} ..) V.I.P.L.P.h.g.g.g.g.g.h.p.M.q $ > 5 1 C o.{ .. . . . . . . . . . . . . . .",
" . . . . . . .X. . . . . . . . . . . . . . . . . ...Q V.P.P.L.P.k.g.g.g.g.g.g.s.M.0 O $ j 3 k X.[  . . . . . . . . . . . . . . .",
" . . . . . . . . . . . . . . . . . . . . . . . . ...) C.P.L.P.L.k.d.g.g.g.g.g.s.6.e 3 j j : C %X.. . . . . . . . . . . . . . . .",
" . . . . . . . . . . . . . . . . . . . . . . . .} ..E V.].P.P.I.k.g.g.g.g.g.h.a.8.e 4 , : $ Z o.}  . . . . . . . . . . . . . . .",
" . . . . . . . . . . . . . . . . . . . . . . . .' ..) v.b.b.b.b.b.v.b.v.v.v.v.v.x.0 O > , - Z o.}  . . . . . . . . . . . . . . .",
" . . . . . . . . . . . . . . . . . . . . . . . . .{ ) c v v v v z.x y z v v z v z.0 + > , - S X.(  . . . . . . . . ... . . . . .",
" . . . . . . . . . . . . . . . . . . . . . . . . ...) N.L.K.K.L.j.d.A.d.d.d.g.p.M.0 + > , ; Z X. . . . . . . . . . . . . . . . .",
" . .X... . . . . . . . . . . . . . . . . . . . . ...E V.P.P.P.I.k.g.g.g.g.g.h.s.7.0 # : - - Z X.}  .(  . . . . . . . . . . . . .",
" . . . . . . . . . . . . . . . . . . . . . . . . ...Q w.P.L.L.P.j.g.g.g.g.g.g.s.b.0 O 1 f +.%.X. . . . . . . . . . . . . . . . .",
" . . . . . . . . . . . . . . . . . . . . . . . . ...Q V.I.L.P.P.k.g.g.g.g.g.h.p.M.< * #.d & * J  . . . .'  . . . . . . . . . . .",
" . . . . . . . . . . . . . . . . . . . . . . . . ...E w.P.L.L.P.k.d.g.g.g.g.g.p.M.r #.6 ; $ o o 2 ~  .}  . . . . . . . . . . . .",
" . . . . . . . . . . . . . . . . . . . . . . . . ...W 9.I.P.P.P.k.g.g.g.h.g.h.p.x.u.7 , * 9 Z 4 o 2 .. . . . . . . . . . . . . .",
" . . . . . . . . . . . . . . . . . . . . . . . .( ..K p V.k.k.l.d.a.a.a.a.a.a.p.M.g * 1 9 ^ E G 5 X G X.}  . . . . . . . . . . .",
" . . . . . . . . . . . . . . . . . . . . . . . . ...P s.m.u y y z v y z z z z v l r = $ H H $ F C   V o.}  . . . . . . . . . . .",
" . . . . . . . . . . . . . . . . . . . . . . . .....P L.].q.w u v N.C.e.N.e.e.9.x.g = $ C ^ F G 9 . F o. . . . . . . . . . . . .",
" . . . . . . . . . . . . . . . . . . . . . . . . ...P d.].f.M N 5.i 5.d.j.h.j.d.2.h d , % C F 5 X 1 ( .. . . . . . . . . . . . .",
" . . . . . . . . . . . . . . . . . . . . . . . .} ..B.5.C.j.w.a w.a.4.i 4.s.h.p.6.q #.8 - o . . * L .... .}  . . . . . . . . . .",
" . . . . . . . . . . . . . . . . . . . . . . . .' ..P l.h.M m.l.a r.j.a a u 4.i.0.0 * #.s 6 * Z ^  . . . . . . . . . . . . . . .",
" . . . . . . . . . . . . . . . . . . . . . . . . ...P l.P.5.e.C.q.t t.4.d.p.a u z.0 O - %. X XX. . . ._  . . . . . . . . . . . .",
" . . . . . . . . .X. . . . . . . . . . . . . . .} ..K l.g.5.].k.r.i t 4.s.A.h.r.1.e < $ S %X|  ... . . . . . . . . . . . . . . .",
" . . . . . . . . . . . . . . . . . . . . . . . . . .L N 5.h.P.P.K.t.a i s.qXwXp.8.8.i b ) >.X. . . . . . . . . . . . . . . . . .",
" . . . . . . . . . . . . . . . . . . . . . . . . . . .L b g.].].l.h.g.4.A.A.A.p.9.0.0.u w P ..}  . . . . . . . . . . . . . . . .",
" . . . . . . . . . . . . . . . . . . . . . . . . . . ...L n m.5.m.m.m.M m.m.m.n.b.c.c.i c W .. . . . . . . . . . . . . . . . . .",
" ... . . . . . . . . . . . . . . . . . . . . . .}  . . . .^ ^ k k D D K D D D D D D D D _ '  .'  . . . . . . . . . . . . . . . .",
" . . . . . . . . . . . . . . . . . . . . . . . . . . . . . . .....[ } ^ ' _  .^ _ } ^ .... .}  . . . . . . . . . . . . . . . . .",
" . . . . . . . . . . . .X. . . . . . . . . . . . . .}  . . . .}  . . . . . . . . . . . .}  . . . . . . . . . . . . . . . . . . .",
" . . . . . . . . . . . . . . . . . . . . . . . . . . . . . . . . . .'  . . . . . . . . . .'  . . . . . . . . . . . . . . . . . .",
" . . . . . . . . . . . . . . . . . . . . . . . . . . . . . . . . . . . . . . . . . . . . . . . . . . . . . . . . . . . . . . . .",
" . . . . . . . . . . . . . . . . . . . . . . . . . . . . . . . . . . . . . . . . . . . . . . . . . . . . . . . . . . . . . . . .",
" . . . . . . . . . . . . . . . . . . . . . . . . . . . . . . . . . . . . . . . . . . . . . . . . . . . . . . . . . . . . . . . .",
" . . . . .X. . . . . . . . . . . . . . . . . . . . . . . . . . . . . . . . . . . . . . . . . . . . . . . . . . . . . . . . . . ."
};
