/* XPM */
static char *result[] = {
/* columns rows colors chars-per-pixel */
"64 64 255 2 ",
"   c #000000",
".  c #0B0507",
"X  c #1A1817",
"o  c #2C0011",
"O  c #301212",
"+  c #312218",
"@  c #171A27",
"#  c #282827",
"$  c #342C2F",
"%  c #333333",
"&  c #383637",
"*  c #47011C",
"=  c #523019",
"-  c #6A330F",
";  c #580023",
":  c #421225",
">  c #640029",
",  c #6E002C",
"<  c #71002E",
"1  c #78002E",
"2  c #730D36",
"3  c #503630",
"4  c #673727",
"5  c #72462B",
"6  c #644632",
"7  c #152656",
"8  c #503550",
"9  c #6F3053",
"0  c #3A4752",
"q  c #325169",
"w  c #3C647E",
"e  c #534E52",
"r  c #6A5555",
"t  c #785C59",
"y  c #4A5873",
"u  c #526975",
"i  c #656564",
"p  c #757273",
"a  c #8D481A",
"s  c #8E4F2F",
"d  c #975429",
"f  c #9F592C",
"g  c #A55826",
"h  c #A25B2B",
"j  c #A15E31",
"k  c #A56235",
"l  c #962E56",
"z  c #9D335A",
"x  c #A92E53",
"c  c #B72C56",
"v  c #A7355C",
"b  c #B5345B",
"n  c #BB345C",
"m  c #983C62",
"M  c #A73A62",
"N  c #B83862",
"B  c #BC3B62",
"V  c #C23C64",
"C  c #927159",
"Z  c #A6635A",
"A  c #905475",
"S  c #B64C6B",
"D  c #887472",
"F  c #D65B59",
"G  c #C5665A",
"H  c #DD645C",
"J  c #CE526B",
"K  c #DC6A64",
"L  c #DE736B",
"P  c #D26974",
"I  c #DC7B75",
"U  c #E37070",
"Y  c #E07770",
"T  c #E17D73",
"R  c #74857D",
"E  c #B39939",
"W  c #B4AC37",
"Q  c #EB911B",
"!  c #F0B21A",
"~  c #D1912F",
"^  c #F59B39",
"/  c #D0B02D",
"(  c #E4AE2C",
")  c #E7B823",
"_  c #AA9C5B",
"`  c #AFA74D",
"'  c #958B74",
"]  c #A6967B",
"[  c #B19774",
"{  c #F6A445",
"}  c #E0A350",
"|  c #D58977",
" . c #E28377",
".. c #ED9473",
"X. c #C9B06C",
"o. c #01338D",
"O. c #375687",
"+. c #1F64A2",
"@. c #3868B1",
"#. c #4B6C8F",
"$. c #52668C",
"%. c #597888",
"&. c #69778C",
"*. c #4D7CA9",
"=. c #155ECA",
"-. c #2B6CD0",
";. c #2979ED",
":. c #327DEB",
">. c #5E7CC9",
",. c #A45E86",
"<. c #957387",
"1. c #B2798D",
"2. c #B27BA9",
"3. c #CF7A94",
"4. c #EF798A",
"5. c #D579AF",
"6. c #E57EAC",
"7. c #2690B2",
"8. c #5E9098",
"9. c #738D94",
"0. c #75AD97",
"q. c #5490B4",
"w. c #7190AB",
"e. c #65A9B7",
"r. c #70AEB2",
"t. c #76BAB5",
"y. c #7AC3BB",
"u. c #0085CD",
"i. c #3C89DA",
"p. c #3684F1",
"a. c #4391CD",
"s. c #4E92CA",
"d. c #4495D2",
"f. c #4799D7",
"g. c #4A9CDB",
"h. c #6D90CB",
"j. c #55A5D8",
"k. c #69B8C7",
"l. c #70B3C8",
"z. c #4896E6",
"x. c #619AE9",
"c. c #4DA2E3",
"v. c #4BA5EA",
"b. c #53A8E9",
"n. c #55ADF2",
"m. c #51AEF5",
"M. c #72B3ED",
"N. c #6DC6DB",
"B. c #72C6D6",
"V. c #78CCD2",
"C. c #73CBDC",
"Z. c #74CFE4",
"A. c #8D8E8A",
"S. c #999998",
"D. c #A69B87",
"F. c #BB8395",
"G. c #B38E92",
"H. c #8EA893",
"J. c #ACA58D",
"K. c #B4A588",
"L. c #B8AC94",
"P. c #BCB19A",
"I. c #8798A4",
"U. c #8C93B5",
"Y. c #B291AA",
"T. c #96A7AA",
"R. c #87A8B0",
"E. c #97ACB4",
"W. c #9DB3B8",
"Q. c #A9A9A9",
"!. c #B3ACAB",
"~. c #A3B7BA",
"^. c #B7B7B7",
"/. c #D5908D",
"(. c #C58798",
"). c #F38695",
"_. c #CDA891",
"`. c #C7B698",
"'. c #C3B59D",
"]. c #EFB48F",
"[. c #CF8EAD",
"{. c #CB95A6",
"}. c #D596A8",
"|. c #DA9BB6",
" X c #E98BB4",
".X c #EE91B0",
"XX c #EB97B7",
"oX c #C5B9A2",
"OX c #D0AEB0",
"+X c #D8A8B8",
"@X c #E4A4BC",
"#X c #F2AEB9",
"$X c #8FC1BA",
"%X c #CFC3B9",
"&X c #F8C2A0",
"*X c #9E90C6",
"=X c #8FACCC",
"-X c #94B6D9",
";X c #AAA4CD",
":X c #ACB0CE",
">X c #B7ADD6",
",X c #BAB1D7",
"<X c #BCB4DA",
"1X c #91B2ED",
"2X c #9AB9E8",
"3X c #A6BAEB",
"4X c #AFBBEC",
"5X c #D19CC8",
"6X c #E79DC5",
"7X c #D5B4CF",
"8X c #C4B9DC",
"9X c #E9A8C6",
"0X c #F6ABCC",
"qX c #F5ACCC",
"wX c #E8B6CA",
"eX c #F5B7C7",
"rX c #FCAED2",
"tX c #E8B5D5",
"yX c #FBB3D4",
"uX c #F9B9D7",
"iX c #D1BEE5",
"pX c #8AD1CC",
"aX c #A5D4D5",
"sX c #8ECAF9",
"dX c #AEC4EC",
"fX c #A8C8F8",
"gX c #B4CAFA",
"hX c #AED3FD",
"jX c #AEDAFF",
"kX c #B1D5FE",
"lX c #B5DAFF",
"zX c #BAD8FE",
"xX c #B7E1FF",
"cX c #CAC9C9",
"vX c #D1C9D0",
"bX c #D6D5D4",
"nX c #DBDBDB",
"mX c #F7C5CA",
"MX c #F6C7D9",
"NX c #E3DBD9",
"BX c #F3D0D4",
"VX c #C9C6E7",
"CX c #D8C8EA",
"ZX c #DAD5E8",
"AX c #C9CBF4",
"SX c #D7CCF2",
"DX c #C8D5FC",
"FX c #D9D5F6",
"GX c #E5C7E8",
"HX c #E6D5EF",
"JX c #DBE2EB",
"KX c #E9E7E7",
"LX c #EBEBF1",
"PX c #F7F6F5",
"IX c #FEFEFE",
/* pixels */
"P iXIXIXIXIXIXVXPXIXZXPXIXIXIXIX8X1.(.(.1.E.sXsXsXw.,XnXnXLXKXnXIXp                                             O + O O + = = 4 ",
"J vXVXVXZXZXJX,XZXZX;XZXZXVXVXZXvXF.(.F.3.9.sXM.Z.*.!.KXbXnXbXcX^.&                                                 * * * O + = ",
"/.ZX,X,X,X>X,X;X>X;X>X,X,X,X,X,XZX{.1.F.1.;XM.*.*.7 @ 9.^.Q.Q.^.i   .                                             o > > 1 < ; * ",
"GXVX,X8X<X<X<X;X;X;X>X<X<X<X<X,XVX7X3.(.3.8XZ.sXM.7 7 bXIXIXPXIX^..                                               ; > < < , < , ",
"HX<X<X<X<X<X<X<X;X;X,X<X<X<X<X<X8XZXF.1.1.Y.sX1XsXO.7 KXIXIXPXIXnX#                                             o 1 < , < < , , ",
"ZX,X<X<X<X<X<X8X;X,X<X<X<X<X<X<X,XZXOX(.}.{.1XZ.sX@.7 HXIXIXIXLX^.e .   X X                             . .     > < < < < < , ; ",
"VX,X<X<X8X<X<X<X;X<X8X<X<X<X<X<X>XZX7X{.{.{.*XM.sX*.q PXIXIXIX!.IXQ.^.KXIXi                             o < > ; < < < < < < > * ",
",X<X<X<X<X<X<X<X;X>X<X<X<X<X<X<X8XVXZX(.}.(.Y.x.sX*.&.PXIXIXLXQ.IXS.KXIXIXi   .                         o 1 < < < , < < < < > ; ",
"8X<X<X<X<X<X,X8X;X>X<X<X<X<X<X<X<X<XHX{.{.F.{.>.sX*.cXIXIXIXIX^.nX9.PXPXIXi                             o 1 , , < < , < < < , * ",
",X<X<X,X<X<X<X<X>X,X<X<X<X<X<X<X<X8XLX+X{.(.[.>.i.T.IXIXIXIXIXKX& bXIXPXIXi                             o 1 , < < < < < < < 1 o ",
"ZX,X,X<X<X<X<X<X>X>X,X<X<X<X<X<X<XLXZX(.{.(.Y.@.O.KXIXIXIXIXPX9.O.IXIXIXIXi                             o < , < < < < , , < > ; ",
"HXLXVX,X,X<X,X8XU.*X<X,X<X>X<XVXLXZX{.{.[.(.h.=.^.IXIXIXPXIX7Xo.=.LXIXIXIXi   .                         o 1 , < < < < < < < > ; ",
"BXZXZXLXZXVXVXCXU.7X8XVXVXSXJXLXKX|.{.{.[.Y.:.$.KXvXcXIXIXPX$.=.=.DXIXPXIXi                             o < , < < < < < < < > ; ",
"#X|.4.}.@X#X:XU.[.MXNXBXGXBXwX9X[.}.{.{.{.>.-.W.IXPXcXQ.PXI.-.=.=.2XIXPXIXi   .             .           o , , < < < < < , 1 ; o ",
"yX6.4.4.4.J S ,.5.6XBXA ,.XX X X5.{.(.}.Y.:.+.S.IXIXIXKXi -.:.-.=.x.IXIXIXi                     . .     o , , < < < , < < > : + ",
"eXP U ).).).4.4. X6XBX(.(.wX9XmXeX}.F.(.*X;.;.y cXKXnXS.+.p.:.=.o.-.IXIXIXi               e 3 $ $ : $ 3 9 9 l 9 9 m A l 3 cXIXPX",
"#XK J U 4.4.4.5.XXXXBXmXmXmXMXBXeX#X(.(.>.w.>.;.+.w $.-.p.:.:.-.&.8XIXIXIXi   .         X wX7X{.,.,.,.<.,.D <.F.Y.+XOX9 D.cXQ.^.",
"6.4.U J J U 4.2.|.#XBX#X.X.X.XXXmX{.}.U.>.....(.G.Y.M.p.:.:.:.:.LXIXPXPXIXi             $ }.}.9X{.OX7XY.9X+X5XeX+X9X@XA 7XvXp A.",
" X4.).4.4.J 3.XX#X7X[..X X X.X&X_.).Z @.s.X.........l.p.:.:.:.;.M.IXIXIXIXi             A MX9X0X9X+X|.{.|.!.|.|.wX9XuXXX!.LXA.Q.",
" X3.4.4.).5. XXXBX[.5..X6. X#X&X{ { t -.s.0.0.H.H.A.M.p.;.:.:.:.z.sXhXPXIXbXvX' = + . = |.qX+XrXrXrXwX+XuX{.9XyXuX9X|.0X1.A.A.S.",
"2.2.#X.X#XeX X#XmX.X.X X.XeX].{ { ^ %.p.s.0.[ 0.0.0.hXp.:.:.:.:.:.+.+.M.IXIXLXR X + X t 9X}.rXrXrXrXOX|.rX+X{.qX0XyX@X+XF.!.^.S.",
"uX.X.X.XmXmX XeX#X X(./.eX&X^ { { { q.p.h.X.L.[ [ H.T.:.:.:.:.;.:.:.f.b.Q.e X # # $ # <.|.qXqXrX0XyX+X9XrXqXOXqXyX0XrXXX(.vXnXp ",
"] eXXX XeXeX XmXeX X3 {.| ^ ^ { { X.8.0 p `.J.K.L.K.%.;.:.:.i.i.z.g.d.c.a.#.0 $ % % & F.rXqXqXqX0XyX|.+XyXwX+X0XqX0XqXyXXX(.bXA.",
"A.cXBXXXmXeX.X#XmX@XOX!.C _ _ _ u +.7.q t K.[ L.K.K.n.p.z.v.c.d.a.c.b.b.n.m.c.#.$ # r 9XrXqXqXrX0XrX+X+XrX9X+XrXqX0XqXqXuX}.!.T.",
"nXcXNXKXBXXXXX.XmXBXKXNXnXZXbXJXq.7.7.7.r.0.0.[ 0.0.e.i.d.d.c.g.f.c.d.d.d.d.g.m.#.# G.uXuXyXrXuXuXyXOX|.uXqXOXqXuXrXyXrXyX6X<.Q.",
"vXbXcXbX%X7XvX7XcXcXcXcXcXbXnXcX0.7.u.q.pXr.8.8.0.0.j.v.b.b.c.f.f.c.b.b.c.c.n.f.i.i {.9X@X9XyXuX9X+X{.rXyX0X7X+XyXyXqX+X9XmXOXA.",
"PXPXPXIXIXIXIXIXIXIXIXIXIXIXKXQ.y.e.+.0.V.r.N.k.8.0.s.f.a.f.c.g.f.b.f.d.a.g.f.g.m.U.wXwXeXwX+X|.+X+XuXrX}.qXqXwX9X9XwXtXMX|.1.7X",
"IXIXIXIXIXIXIXIXIXIXIXIXIXbXbXI.e.e.8.y.r.B.N.Z.r.y.t.j.m.j.g.a.f.f.g.b.n.b.d.c.z.*.t 1.[.|.wXMXwXwX+X9X(.@X9XuXMXwXY.1.<.Y.!.S.",
"IXIXIXIXIXIXIXIXIXIXIXIXbXKXaXk.N.y.r.N.B.B.N.C.e.pXpXV.k.v.c.f.f.b.f.f.d.g.f.a.c.s.% % 8 r A Y.5XtXuX5XF.MXtX[.,.t p nXIXIXKX^.",
"IXIXIXIXIXIXIXIXIXIXIXbXKXJXk.Z.N.V.$XN.C.N.M.Z.t.V.pXpXV.y.l.f.f.b.g.b.b.n.n.b.b.g.0 $ $ % % 3 9 t A OXD <.A r 8 = S.IXIXIXcXS.",
"IXIXIXIXIXIXIXIXIXIXnXnXPXR.R.pXV.e.t.B.pXpXaXpXy.pXpXpXV.NX%Xa.f.c.f.g.g.f.c.d.f.b.q $ % % % % % % % % # @ $ & + = !.IXIXIXcXS.",
"IXIXIXIXIXIXIXIXIXKXbXPXI.cX%XnXpXe.0.l.bX%XOXpXe.V.pXZ.aXNX0.f.f.c.f.f.f.d.c.b.b.m.#.# % % % % % % % $ @ % # # X = !.IXPXIXnXcX",
"IXIXIXIXIXIXIXIXIXbXLXy.e.pXH.R.V.k.t.k.r.0.0.V.B.t.V.$XKX^.j.g.f.b.b.n.b.c.b.g.i.g.q.% % % % % % % % # # X # & e = !.IXIXIXNXS.",
"IXIXIXIXIXIXIXIXnXNXJ.N.t.V.y.y.t.t.t.k.y.y.t.y.B.t.] S.P.s.g.f.f.g.a.a.d.f.s.c.b.n.d.% % % % % % $ & # . X R Q.A.e Q.IXIXIXnXcX",
"bXIXIXIXIXIXIXPX~.D ' N.B.0.r.t.B.t.W.N.k.0.0.k.C.r.J.J.] t.m.g.f.n.n.n.n.m.q.f.g.a.f.0 $ & & % % % & # + i cXLXcXr ^.IXIXIXnX%X",
"p bXPXIXPXPXPXQ.R.=X8.q.Z.Z.l.B.N.k.t.B.Z.B.M.C.Z.l.D.X.0.e.f.f.f.g.f.f.g.i.@.q.b.b.b.y + # # # # % % X + t A.A.r 3 NXIXIXIXvXE.",
"+ y I.I.E.:XI.-XlXkX-XR.e.e.B.C.Z.t.y.B.C.C.C.C.C.t.0.0.0.0.b.i.f.b.c.c.b.n.*.*.n.a.f.q.y $.&.&.y % $ # + = = - 4 = Q.IXIXPXQ.!.",
"r.-X&.&.-X2X2XfXkXhXkXlXhX=Xe.e.N.B.y.B.C.C.N.C.Z.r.0.0.0.j.m.v.g.v.v.v.c.v.7.#.x.1X3XgXzXzXgXgXdX0 @ # + 5 = 6 4 = = G.].4.L K ",
"%.h.w.U.kXfX=X-XlXkXhXhXhXlXhXdXl.8.R.N.Z.C.N.C.N.l.e.r.R R u 8.8.%.%.&.s.g.=X3XgXgXfX4X3X1X3X1XdXU.& @ + 5 = 4 5 s G K /._.+X%X",
"& w.U.=XzXzX-Xr.fXlXkXhXhXhXhXlXzXhX=Xe.N.C.N.N.Z.l.v.r.[ ' ] ' ' ] ' K.E.gXgX2X1X3X1X1XiX1XgXuXdXCXY.0 O - s G G K T T OXnXKXNX",
"3 #.&.fXhXhXxXw.e w.fXxXxXjXjXhXkXkXxX2Xr.C.C.C.C.e.a.T.[ L.J.D.] P.L.] R.fX3X1XSXGXzXDXHXSXFXiX6X4X6X5X&.4 G  . .K K I OXNXNXNX",
"5 $.w.zXhXhXzX=Xi r q w.-XdXhXxXkXkXhXzXl.l.Z.B.Z.e.j.S.K.%XL.J.'.'.oXK.w.gXGXDXDX9XSXzXHXiXiX>X X5.fXtXGX=X1.I K K I  .%XNXNXNX",
"C R #.3XlXhXhXfX-Xt u 8.#.8.#.w.hXkXfXlX4Xe.C.B.Z.e.a.A.`.'.] D.P.'.'.`.w.3XrXgX4X6.9X>XiXiX9X4XdX6X5X2XtXHXDX3XP L ..| 7XNXNXNX",
"C P.u *.kXhXkXkXxXI.8.r.u u y q q %.=XkXzXl.k.C.C.k.j.P.`.'.] ] J.oXP._.=XiX X>X5X6X6XSXSXFXtXSX2XAX9XiX3XgXGXFXdX(.I  .%XNXNXbX",
"C oXK.$.h.lXjXhXhXlX-Xe - 5 5 5 - e =XzXlX=Xk.C.Z.e.u J.Q.L.] `.'.'.oXK.E.VXXX1XDXGX6XzX3XgXGXtXDX1XDXiXFX4X4XtXuXHX4X^.7XnXNXnX",
"] oXoX' $.=XlXhXhXhXxXdXC g g f d e h.zXkX-Xk.Z.e.9.u 9.' } / ` '.oX`.K.Q.CXtX1X3XSXqXDX1X1XDXGXAX4X>XSXgXGXAX3X<XtXHXDXzXcXNXbX",
"] oXoXD.' O.-XlXhXhXhXjXfXC d d g 5 8.kXkXdXe.q.q u #.` ) / W / / P.oX] cXGXMX2X1XDXGXAX2X1XAXAX*X5X;X4XDXiXtXHXgX3X7XFXdXNXNX%X",
"K.oXP.D.D.D $.l.lXhXjXhXxXU.a f j a e sXlXlX9.9.$.9.0.W / ) ) / W } %X[ W.SXHX1XfXDXGXGXAX;X4XiX7XCXDX3X3XAXAX5XiXAXdXdXOXNXBXOX",
"K.oXP.L.' ] J.y h.xXkXhXkXhXi a f g 5 8.hXhX-XI.9.9.~.X.! ) Q E ( ! X.L.S.GXHX4X4XFX5X6XtX3X3XDXSX5XFXgX1X4XGX6X5XSXfXY.+XNXNX_.",
"J.`.P.P.' ' %X] O.w.kXkXhXkXfX9.s f d e sXxXdX9.9.9.w.` / E Q ( Q W ` P.7X5X,.<.;XGXGXGXFXgX1X3XAXGX6XFXiXh.6XSXFXDX2XI OXNXBX/.",
"!.oXP.`.' A.oXoXD.y q.3XlXhXhXlX=Xs k 5 &.U.I.T.u T.I.H./ Q / W ` Q ( _.<X[.9 8 q $.&.<.U.>.#.&.gXFX5XiXtX4X1XfXgX1X(.T OXNX%X .",
"L.`.L.'.S.S.oX'.%X] e $.-XzXkXkXxXS.a g C T.W.E.u 0.~.:XX.Q E ) / ( Q X.!.S B v n 9 9 8 9 9 9 m 8XFXiX5XFXgX1X3X1XF.H T oXNX+XT ",
"L.P.P.'.A.A.oX'.'.'.h 5 O.=XfXhXkXhX<.a C 9.T.W.0 q T.W.W.~ ! ! W W ~ X.P b A b V v V M S M V V 3.iXFXiXSXDX3X;X/.L H Y _.bX].I ",
"P.oXoX'.' D.oXP.oXL.j g s 3 q fXlXkXjXp C R.T.W.3 y W.~.:X[ ! W W ) Q ( (.v z V N z B m B M N B J iXgXFXDXgXU.K  ...K L }.vX/.U ",
"P.'.'.P.X.X.L.oXoXL.j f h g e q.gXzXhXjXI.E.W.9.= &.W.W.W.Q.~ / ) ! ( ~ | m b V v M V m S M b N N *XAXAX4XY.F K  .I K L _.%X/.K ",
"P.'.'.`.8.R oXP.`.L.j h f j s e #.l.lXhXA.E.E.p = p W.W.W.E.X.Q W W W ~ G l N V z M N M B M v N c ,.3Xh.1.U K L I  .L L }.OX .K ",
"P.'.oX`.R R oX'.oXL.j d h f h 5 6 O.l.D C ~.~.9.= R ~.~.~.T.L.~ ~ ) / ! ~ v B n z N S z S N v n n V 3 - K L F L I Y L H _.OXL H ",
"'.'.'.P.X.X.P.`.oX_.j h h h d a g s 3 d Z W.^.&.= i :X~.E.:XS.E ! W W W E S N c z B N l N B z N n V 2 4  .K H I L  .L H /.}.H Y ",
"] '.'.oX' R oXoXoX'.j h d h d 5 f g g g C W.~.9.= e 9.9.E.9.D.E / W / ) ( S N v v n b z N S z c n V x s T H L  ...| L H /./.L ..",
"' P.oX`.#.u `.P.oXJ.h d h h d 5 f f f d _ W.:X9.= 0 9.W.T.T.J.s W ! ) ) ( n B x M n n z b V v v n n c F T H L  .|  .L H  . .K T ",
"J.D.P.`.#.u `.'.`.' f f f h s 5 f h f g ' :XW.A.= i ~.~.W.~.] M ~ W ` W ~ B n z b n n z b B v z V n c J L H  . . .T I H /. .L  .",
"P.] P.`.w %.`.oXJ.] k f h h a 4 f f f g C W.~.9.= e W.$X~.~.] b Z ` ) ) | x c z V c n x c V N x n n c b H H  . . .T L H /.| T  .",
"'.'.'.`.w $.`.'.P.L.j f h g s 5 h f f g s R.~.I.= r W.~.E.~.D.x P oX`.%XG.c x z n c n l b n N l n n c c V H  . . . .I K OX .T  .",
"'.'.P.`.8.9.K.'.'.`.j f f g 5 4 h f f g C E.~.0.6 r W.~.E.W.' b Z J.L.K.Z n x v n c n l c n N v x c b c n K  . . .I I L OX/.I  ."
};
