/* XPM */
static char *_ece80f8e1cb478a9df191abe9426bfcFQjFytQZPFgvFeO3[] = {
/* columns rows colors chars-per-pixel */
"64 64 245 2 ",
"   c #2F1200",
".  c #371701",
"X  c #3B3100",
"o  c #2A2C34",
"O  c #411F06",
"+  c #6E0B0E",
"@  c #492609",
"#  c #493E01",
"$  c #522E12",
"%  c #673B1A",
"&  c #593B24",
"*  c #753435",
"=  c #15741A",
"-  c #36753B",
";  c #554D02",
":  c #64580F",
">  c #79670F",
",  c #574D28",
"<  c #764C2B",
"1  c #654A35",
"2  c #6E682E",
"3  c #683F45",
"4  c #504F4E",
"5  c #6F5852",
"6  c #72754F",
"7  c #6C6359",
"8  c #78675A",
"9  c #606263",
"0  c #676667",
"q  c #6E6E6D",
"w  c #796A65",
"e  c #716E6D",
"r  c #6B786A",
"t  c #74716E",
"y  c #7A746B",
"u  c #6D6F73",
"i  c #686E74",
"p  c #776975",
"a  c #6E7374",
"s  c #6B767A",
"d  c #737373",
"f  c #7B7573",
"g  c #757877",
"h  c #747A7A",
"j  c #7B7B7C",
"k  c #8F0A0B",
"l  c #A50000",
"z  c #B70005",
"x  c #AF161E",
"c  c #9F2A2E",
"v  c #C40106",
"b  c #C80B14",
"n  c #EE0A0D",
"m  c #F31B23",
"M  c #CC2731",
"N  c #F32F34",
"B  c #F52C34",
"V  c #91791F",
"C  c #804E25",
"Z  c #85552B",
"A  c #8B5C36",
"S  c #8E6A37",
"D  c #DC6427",
"F  c #F27A2D",
"G  c #B63945",
"H  c #D23649",
"J  c #ED3947",
"K  c #90504D",
"L  c #85585C",
"P  c #B24C53",
"I  c #886449",
"U  c #996E4C",
"Y  c #836955",
"T  c #90755A",
"R  c #AB7255",
"E  c #975D63",
"W  c #866A68",
"Q  c #8F6E68",
"!  c #897467",
"~  c #84746D",
"^  c #887A76",
"/  c #937D78",
"(  c #AF6D6D",
")  c #CD4C53",
"_  c #EA4148",
"`  c #FB535A",
"'  c #C27B4B",
"]  c #F25A66",
"[  c #D26670",
"{  c #FB6B6E",
"}  c #EE7479",
"|  c #26B01A",
" . c #2A9724",
".. c #32B229",
"X. c #469E34",
"o. c #37C629",
"O. c #3DCD38",
"+. c #50914E",
"@. c #57B05B",
"#. c #69876D",
"$. c #93823B",
"%. c #FF9338",
"&. c #CBAA30",
"*. c #918750",
"=. c #A8A145",
"-. c #938D6E",
";. c #868279",
":. c #98857B",
">. c #AA8F75",
",. c #A6A27D",
"<. c #F69B53",
"1. c #C79773",
"2. c #EBAA75",
"3. c #DAC77A",
"4. c #EBCF71",
"5. c #2B7AA8",
"6. c #7E6F84",
"7. c #6A7C85",
"8. c #747D86",
"9. c #7C7E81",
"0. c #847D86",
"q. c #BC7489",
"w. c #3887A8",
"e. c #2A84B8",
"r. c #318CBA",
"t. c #3893BE",
"y. c #578D95",
"u. c #6A8389",
"i. c #7D8588",
"p. c #6D8998",
"a. c #799498",
"s. c #4687A3",
"d. c #5994AD",
"f. c #6596A6",
"g. c #6F9CAC",
"h. c #4EA1BB",
"j. c #5AA3BA",
"k. c #6BAAB6",
"l. c #3A9AC8",
"z. c #3595D0",
"x. c #3CA1D1",
"c. c #479CC7",
"v. c #48A4C9",
"b. c #56A9CA",
"n. c #53B2CB",
"m. c #47AAD4",
"M. c #4DB2D4",
"N. c #55B4D3",
"B. c #57B7D8",
"V. c #6CB3C8",
"C. c #66BBD8",
"Z. c #75BCD6",
"A. c #4BB7E4",
"S. c #56BAE3",
"D. c #5FC0DA",
"F. c #69C3DD",
"G. c #7AC6D6",
"H. c #5EC5E5",
"J. c #68C4E5",
"K. c #77C8E5",
"L. c #828483",
"P. c #888A86",
"I. c #8C8D8B",
"U. c #978985",
"Y. c #96968A",
"T. c #878E90",
"R. c #899397",
"E. c #969897",
"W. c #A28985",
"Q. c #AD958F",
"!. c #9CA498",
"~. c #A5A798",
"^. c #B4AC91",
"/. c #948DA4",
"(. c #8B9CA2",
"). c #959AA7",
"_. c #A09EB6",
"`. c #8DA6AF",
"'. c #9AA8A9",
"]. c #91BBA3",
"[. c #87A9B7",
"{. c #96A8B5",
"}. c #99B5BA",
"|. c #A7A8A9",
" X c #B3B5AA",
".X c #A6AAB7",
"XX c #B5A5B2",
"oX c #A8B6B8",
"OX c #B4BAB7",
"+X c #BCBCBB",
"@X c #C39389",
"#X c #E68990",
"$X c #E6999B",
"%X c #DBAB8F",
"&X c #E5AB84",
"*X c #E8B288",
"=X c #ECB792",
"-X c #CB96AA",
";X c #CBB1B3",
":X c #EBAEB1",
">X c #A2C7BC",
",X c #B6C4BD",
"<X c #E8D69B",
"1X c #D1C4BE",
"2X c #EDD5AF",
"3X c #9AACC3",
"4X c #88BCC8",
"5X c #98B9C6",
"6X c #8BBCD0",
"7X c #A6B7C9",
"8X c #B8BCC4",
"9X c #A5BAD3",
"0X c #A8BED6",
"qX c #B9BCD5",
"wX c #C4B3C5",
"eX c #89C7D9",
"rX c #90C8D0",
"tX c #97C9D7",
"yX c #A6C3CB",
"uX c #B7C4C6",
"iX c #A5CAD7",
"pX c #ACC3DC",
"aX c #B6CAD6",
"sX c #B2C6DD",
"dX c #AAD3D8",
"fX c #B8D3D9",
"gX c #8CD2EA",
"hX c #99D4E7",
"jX c #AACEE5",
"kX c #B5CBE2",
"lX c #B5CBE4",
"zX c #B9CEE3",
"xX c #A7D5E4",
"cX c #BBD1E6",
"vX c #BADAE6",
"bX c #B2E2EF",
"nX c #C7C8C9",
"mX c #C9CDD2",
"MX c #C4D7DB",
"NX c #D4D4D1",
"BX c #E9CBC9",
"VX c #EDD1D2",
"CX c #C7DAE5",
"ZX c #C8E1E7",
"AX c #F2ECF0",
/* pixels */
"d d d d d d d d d d d d d d d d d d d d d d d g d d d d d d d d d d d d d d d d d d d g d d g d d d d d d d d d d d d g d d d d ",
"d d d d d d d d d d d d d d g d d d d d d d d d d d d d d d d d d d d d d d d d d d d d d d d d d d d d d d d d d d d d d d d d ",
"d d d d d g d d d g d d d d d d d d g d d d d d d d d d d d d f d g d d d d d d d d d d d d d d g d d d d d d d d d d d d d d d ",
"d d d d d d d d d d d d d d d d d d d d d d d d d d d d d d d d d d d d d d d d d d d d d d d d d d d d d d d d d d d d g d d d ",
"d d d d d d d d d d d d d d d d d d d d d d d d d d d d d d d d d d d d d d g d d d d d d d d d d d f d d d d d d d d d d d d d ",
"d d d d d d d d d d f d d d g d d d d d d d d g d d d g d d d d d d d d d d d d d d d d d d d d d d d d d d d d d d d d d d d d ",
"d d d d d d d d d d d d d d d d d d d d d d d d d d d d d d d d d d d d d d d d d d d d d d d d d d d d d d d d d d d d d d d d ",
"d d d d d d d d d d d d d d d d d d d d d d d d d d d d d d d d d d d d d d d d d d d d d d d d d d d d d d d d f d d d g d d d ",
"d d d d d d d d d d d d d d d d d d d d d d d d d d d d d d d d d d d d d d d d d d d d d d d d d d f d d d d d d d d d d d d d ",
"d d d d d d d d d d d d d d d d d d d d d d d d d d d d d d d d g d d d d d d d d d g d d d d d d d d d d d d d d d d d d d d d ",
"d d d d d d d a d d d d d d d d d d d d d d d d d d d d d d d d d d d d d d d d d d d d d d d d d d d d d d d d d d d d d d d d ",
"d d d d d d d d d d d d d d d d d d d d d d d d d d d d d d d t d d d d d d d d d d d d d d d d d d u d d d d d d d d d d d d d ",
"d d d d d d d d e u d d d d d d d d d d d d d d d a d d g d d d d d t t t d a d d d d d d d d t d g j d u d d d d d d d d d d d ",
"d d d d d a d t 9.^ u d d d d d d d d d d d t g ;.P.Y.'.aXT.q d d j T.i.d q d d d d d d d q d R..X0X7X}.L.u d d d d d d d d d d ",
"d d d d d d q i.;XN ( 0.q d d d d d d d d g P.E.!.oXfXOXOXoX9.f d E.tXiX}.i.t d d d d d q i.7XsXcXzXcXCX7XL.u d d d d d d d d g ",
"d d d d d d h XX` n ` $XQ d d d d d t g ;.E.~.OXaXOX,XOX XuXaX#.d '.L.}.fXdXR.t d d d t i.aXcXzXzXzXzXkXCX7Xj d d d d d d d d d ",
"d d d d d a ^ H J _ B ] } W u u d e ;.!.Y.,XuX,X,X,X X,XfX}.5XR.y {.).#.}.tXrXi.e d d e {.lXlXlXzXzXzXzXcXlX7Xj u d d d d d d d ",
"d d d d d g K M [ } { J ` [ p d d ;.~.MX X,.^.,X XfXuX`.3X!.(.(.q L.iX,X{.5XxX4X;.u d u {.lXlXlXlXpX0XsXpXlXlX}.f e d d d d d d ",
"d d d d d d p E H #X:X} ` { ^ u d -.!.oX X*.Q.MXyX}.`.T.a.;.j g d e `.tXrXrXjXJ.5Xf d u T.0XpXlXsX9X9X0X0XpXlX0X).u d d d d d d ",
"d d d d d d d 9.E M ] #X#X#X|.u d y Y.~. XuXoX}.`.P.;.^ 0 0 t t d q P.fXiXJ.Z.4XJ.`.d d u _.9XjXlXpXsX0X0X0XlX9X3X9.u d d d d d ",
"d d d d u d d d e * c G ( .XI.e d q *.,.!.>X'.R.#.Y 7 q t t q r d d h rXMXvXx.V.eXK.R.e e T.7X3XzXlX0XpXpXlXlX9X3X0.e d d d d d ",
"d d d d d d d d d d 5 * 5 9.d u d a q T Y.T.y 6 7 0 p g u.`.'.a.h d d b.J.CXZ.m.tXB.6X0.u g _.3X3XCXlX0XlXlXjXpX/.W d d d d d d ",
"d d d d d u d d d u a u u d d d d d a y ;.7 4 0 d d d t d.K.ZXfX4Xg.oXfXB.K.iXB.6XV.S.oXu d 8.3X[.3XcXzXlXcXpXpX_.^ d d d d d d ",
"d d d d d d d e f W.^ a g p d d d d d t r q d g d d d t a j.G.MXMXrXF.CXxXm.Z.hXS.5Xb.gXE.u d (.7X3X3XkXsXlXqX-X/.p d d d d d d ",
"d d d d d d a I.mXVX} E a a u d d d d d d d d d d d d d t u.j.V.fXfXC.C.ZXeXN.vXJ.b.V.S.fX9.e d ).9X3X3X7XqX-XwX/.g d d d d d d ",
"d d d d d t j NXAXVX} N E s d d d d d q f g d d u d d d d a y.rXV.dXvXM.Z.fXF.hXxXl.d.M.gX'.e d h _.0X7X3X_.Q.7XR.p d d d d d d ",
"d d d d d a 0.NXAXVX{ B B E a p d i 8.4 o 0 f j d d d d d d u.5XrXN.xXhXv.eXxXJ.vXb.5.V.A.tXj u d d R.)./.0.p L.g d d d d d d d ",
"d d f d p u j XXwX:X` B m B ( 6.d h 0 o o 9 E.I.I.j f d a t q 7.[.F.B.vXZ.N.bXgXxXdXw.Z.J.hX6.d d d u f p d a u d d d d d d d d ",
"d d d d d d d p T.[ m m b v H ( u d u 0 4 L.E.Y..X|.R R p g d e i.rXS.C.iXC.K.hXgXbX4Xh.eX(.d d d d d +.+.p j d d d d d d d d d ",
"d d d d d d p 4 0 x v z z z G P K d d g j T.I.'.CXCX2.D D ~ d d u 9.5XS.Z.xXgXS.K.bXvXF.k.d d d d d #.o...X.r d d d d d d d p d ",
"d d d d d d u 3 + k z v z z P H v L h d u L.I.oXCXNX2.F F R 0 d d u L.[.N.K.xXeXJ.hX5XR.h p d d j #.O.O..... .+.a d d d d d d d ",
"d d d d d d d 4 + + l z z z x z v L s d d p ;.E. X<.%.<.<.Q.i.t d d d j i.j.S.eXbXG.h e d d d f #.@.O.o.....= = r d d d d d d d ",
"d d d d d t d d 0 5 5 k l l z v v K a d d d t g :.' F %.2.mXuX'.#.p d d t d 7.f.xXg.e d d d d d t @.O.o.o. .= 4 #.d d d d d d d ",
"d d d d d d u d p f f 0 * k k z v K s d d d d q q f T R E.OXmXmX8XI.q d d d d d i.d d d d d d d d #.O.o.o. .- d d d d d d d d d ",
"d d d d d d d d d d u d d 7 5 * c w d d d d d P.;.d d s d h E.oX+XI.a d d d d d -.:.^ e d d d a a s ..| |  .9 d d d d d d d d d ",
"d d d d d d d d d d d d d d s a q a d d d q '.mX+XE.d t d q 0 j j d d d d d d 7 I 5 1 , 1 1 1 & Y I.X.| | X.r d d d d d d d d d ",
"d d d d d d d p d d d d d d d.d.s t d d q E.mX;X+XnXP.e d d d q q d f f f ! I $ . . @ $ $ $ $ < &X^.t +.+.r d d d d d d d d d d ",
"d d d d d d a y.7.d d d d d y.B.k.t d e E.mXnXOX+XnXE.q d d d d d d ^ Q U A Z @ . @ @ @ @ @ I %X&X>.d d t e d d d d d d d d d d ",
"d d d d d d d v.j.e d a g y y.D.tXa.e E.1XuXnX;X+XnXE.q d r g t y T U S Z < < @ . @ $ $ $ T =X*X>.d d d a a u d d d d d d d d d ",
"d d d d d d p j.B.a.e u #.#.h.M.G.rXd |.8X+XmXnX XE.f u d d y Y A A Z A Z < % . . . . * 1.<X&X%XU.u d t *.>.-.d a t d d d d d d ",
"d d d d d d e g.H.G.a.a.k.n.n.n.B.G.#.|.nXmXnXXXj d d d d d 5 Z < Z Z C < % $ O     & 1.=X&X%XBX^ d t $.4.<X<X=.y d d d d d d d ",
"d d d d d d d f.F.K.G.j.h.j.M.n.D.G.h j |.+XE.e q a a d d y W Y I I I T T % @ .   < &X=X&X&X2X-Xg r y &.4.<X2X4.*.a d d d d d d ",
"d d d d d d d j.D.F.N.l.l.h.M.n.M.k.r a d d q j  X^.^ a d d f ~ ! ^ ! U.Q.R Y < R =X*X&X%XBX#XR s a *.4.<X,.*X3.*.r t d d d d d ",
"d d d g d a t f.F.B.v.l.t.v.D.n.A.j.y d d d j oXdX,.>.^ u d y ~ ~ ! / / / 0.Q.W.1.2.*X&XVX$XR f a y &.<XuXoX;X=.#.y d t d d d d ",
"d d d d d d t s C.N.l.r.t.t.n.N.m.b.f d d a i.uX}.^ @X^.d d e w ~ ~ ^ / :.^ >./ >.1.=XBX$XP ^ a d 6 V ! -.OXNX2 0 g d d d d d d ",
"d d d d d a d a V.H.l.e.t.r.v.N.m.b.h d d d 7.}.~.q.-XfXE.e d w 7 8 Y / U.W.:.:.:X;XVX$XG W a d d : # # X 6 3.*.i d d t d d d d ",
"d d d d d d d d f.B.l.z.e.e.l.N.N.m.u.y d d 0 g. X1XuXMXXXd d y ~ 7 5 Y W ^ :.W.2XVX:XG W h t d q 2 : ; # X > ;.a t d d d d g d ",
"d d d d d d d d a j.m.m.e.e.e.v.N.B.f.e d p u 7.`.].>X8X8XL.u y ~ w 7 8 ! W w W.VXBXG E d d d d t 0 V > ; ; , d a d d d d d d d ",
"d d d d d d d d d u.v.v.z.5.e.z.m.A.d.d d d d i 7.'.3XpX7Xj u d d ^ ~ ~ ^ / ! :.BX) K h d d d d t d ;.-.2 , 7 a a t d d d d d d ",
"d d d d d d d d d a s.e.x.e.5.x.b.c.f.d d d d d 0 6./.p.s d d d d d d ~ ~ ~ ~ :.) P j t d d d d a d f #.d d s t d d d d d d d d ",
"d d d d d d d d d d i 5.c.s.s.f.h d a d d d d d p 0 9 9 t d d d d d d d f ~ ~ W P j d d d d d d d d f d u p d d d t d d d d d d ",
"d d d d d d d d d d d s d h d u u d d d d d d d d g u f d d d d d d d d d d t w j a t d d d d d d d g d d d d d a d d d d d d d ",
"d d d d d d d d d d d d d d d d d d d d d d d d d d d d u d d d d u d d d a d a t a d d g d d d d d d d d d d d g d d d g d d d ",
"d d d d d d d d d d d d d d u d d d d d d d d d d d d d d d d d d d d d d d t d d t d d d d d d d d d d d d d g d d d d d d d d ",
"d d d d d d d d d d d d d d d d d d d d d d f d d d d d d d d d d d d d d d d t d d d d d d d d d d d d d d d d d d d d d d d d ",
"d d d d d d d d d d d d d d d d d d d d d d d d d d d d d d d d d d d d d d d d d d d d d d d d d d d d d d d d d d d d d d d d ",
"d d d d d d d d d d d d d h d d d d d d d d d d d d d d d d d d d d d d d d d d d d g d d d d d d d d g d d d d d d d d d d d d ",
"d d d d d d d d d d d d d d d d d d d d d g d d d d d d d d d d d d d d f d d d d d d d d d d d d d d d d d d d d d g d d d d d ",
"d d d d d d d d d d d d d d d d d d d d d d d d d d g d d d g d d d d d d d d d d d d d d d d d d d d d d d d d d d d d d d d d ",
"f d d d g d d d d d d d d d d d d d g d d d d d d d d d d d d d d d d d d d d d d d d d d d d d d d d d d d d d d d d d d d d d ",
"d d d d d d d d d d d d d d d d d d d d d d d d d d d d d d d d d d d d d d d d d d d d d d d d d d d d d d d d d d d d d d d d ",
"d d d d d g d d d d d d d d d d d d d d d d d d d f d d d d d d d d d d d d d d d d d d d d d d d d d d d d d d d d d d d d d d ",
"d d d d d d d d d d d d d d d d d d d d d d d d d d d d d d g d d d d d d d d d d d d d f d d d d d d d d g d d d d d d d d d d ",
"d d d d d d d d d d d d d d d d d d d d d d d d d d d d d d d d d d d d d d d d d d d d d d d d d g d d d d d d d d d d d d d g "
};
