/* XPM */
static char *e8880b3e68f541bbb3930d32d3dc1890erkaTpO5CElnfPgS[] = {
/* columns rows colors chars-per-pixel */
"64 64 216 2 ",
"   c #080607",
".  c #0B0C09",
"X  c #0D110C",
"o  c #12110E",
"O  c #1D170E",
"+  c #090914",
"@  c #100E16",
"#  c #0C1117",
"$  c #141718",
"%  c #1B1B1A",
"&  c #211C18",
"*  c #26211C",
"=  c #352519",
"-  c #0A1523",
";  c #141A21",
":  c #161B24",
">  c #1C2128",
",  c #043E2A",
"<  c #222321",
"1  c #262829",
"2  c #322F2E",
"3  c #282C31",
"4  c #312D32",
"5  c #363433",
"6  c #393836",
"7  c #3B3D3C",
"8  c #513610",
"9  c #633E15",
"0  c #0D4329",
"q  c #11472A",
"w  c #154A2D",
"e  c #115534",
"r  c #305828",
"t  c #26563D",
"y  c #0C6B3B",
"u  c #186C36",
"i  c #057039",
"p  c #0D713C",
"a  c #0A793F",
"s  c #19763C",
"d  c #18763D",
"f  c #127C3F",
"g  c #31682E",
"h  c #25763A",
"j  c #5F4115",
"k  c #494133",
"l  c #634621",
"z  c #6B522C",
"x  c #56712B",
"c  c #62782C",
"v  c #7E7738",
"b  c #383E45",
"n  c #3E4845",
"m  c #2C5845",
"M  c #2E5B46",
"N  c #315943",
"B  c #30575D",
"V  c #0B7540",
"C  c #097941",
"Z  c #157542",
"A  c #137A41",
"S  c #2C6446",
"D  c #376941",
"F  c #316548",
"G  c #267941",
"H  c #2F5964",
"J  c #286377",
"K  c #434444",
"L  c #464849",
"P  c #4B4C4E",
"I  c #504D4D",
"U  c #484B50",
"Y  c #4A5752",
"T  c #555755",
"R  c #5C5D5C",
"E  c #4A6B5D",
"W  c #5E635F",
"Q  c #487C54",
"!  c #5A755E",
"~  c #6F794E",
"^  c #67635E",
"/  c #5C5C60",
"(  c #5F6261",
")  c #5C6F6A",
"_  c #597566",
"`  c #5F716A",
"'  c #646565",
"]  c #656B6A",
"[  c #6B6D6B",
"{  c #726D6E",
"}  c #62726A",
"|  c #6A736C",
" . c #75716F",
".. c #6B6471",
"X. c #6D6E76",
"o. c #736E72",
"O. c #6F7175",
"+. c #6B7179",
"@. c #737373",
"#. c #797475",
"$. c #757C78",
"%. c #7B7B7B",
"&. c #814E0E",
"*. c #855816",
"=. c #966C1C",
"-. c #AB6C12",
";. c #B97618",
":. c #906C2C",
">. c #8D6D39",
",. c #B47C28",
"<. c #A87032",
"1. c #C97925",
"2. c #8C3B47",
"3. c #947751",
"4. c #A27945",
"5. c #857B65",
"6. c #807F7E",
"7. c #1C8B3E",
"8. c #2E843C",
"9. c #2E8A3E",
"0. c #33843A",
"q. c #348D3F",
"w. c #25923C",
"e. c #2B953D",
"r. c #2D993E",
"t. c #3D923D",
"y. c #34993C",
"u. c #36A03D",
"i. c #43953F",
"p. c #4F9039",
"a. c #45993D",
"s. c #4C993D",
"d. c #79922C",
"f. c #55A63C",
"g. c #5AA53D",
"h. c #59A839",
"j. c #5CA93D",
"k. c #65A638",
"l. c #64AA3C",
"z. c #69AD3C",
"x. c #75AE3A",
"c. c #6DB13A",
"v. c #73B13C",
"b. c #7BB63B",
"n. c #7DB939",
"m. c #138342",
"M. c #298941",
"N. c #358E40",
"B. c #259542",
"V. c #379440",
"C. c #3C9341",
"Z. c #439341",
"A. c #499741",
"S. c #469B40",
"D. c #7C884F",
"F. c #948F2B",
"G. c #BC922D",
"H. c #9DA029",
"J. c #87BA3C",
"K. c #8BBC3B",
"L. c #91BF3B",
"P. c #ACA72B",
"I. c #CA8D18",
"U. c #E89919",
"Y. c #DAA819",
"T. c #EDAC15",
"R. c #E7B31C",
"E. c #EEBA1E",
"W. c #F6B419",
"Q. c #F4BC1E",
"!. c #D69524",
"~. c #E89B22",
"^. c #CEAC28",
"/. c #EBAF22",
"(. c #EDB720",
"). c #F2B520",
"_. c #F3BE20",
"`. c #93C13B",
"'. c #9AC43C",
"]. c #FCC21B",
"[. c #FCD51A",
"{. c #F6D126",
"}. c #8E9252",
"|. c #B08F54",
" X c #89AF5E",
".X c #B2A34B",
"XX c #8B8662",
"oX c #908B61",
"OX c #83827F",
"+X c #89A472",
"@X c #97C675",
"#X c #19709F",
"$X c #2B6D87",
"%X c #117BBA",
"&X c #1B83BC",
"*X c #3F82A6",
"=X c #2584B4",
"-X c #738F93",
";X c #4787A1",
":X c #1886C5",
">X c #3495C8",
",X c #389BD7",
"<X c #3DA1DB",
"1X c #38A9F0",
"2X c #42A0CF",
"3X c #4BAADA",
"4X c #4BADE2",
"5X c #4CB4EF",
"6X c #52B2E2",
"7X c #51B7EC",
"8X c #48B5F4",
"9X c #828181",
"0X c #898887",
"qX c #86A98F",
"wX c #A1CB8D",
"eX c #C7DFB7",
/* pixels */
"@.@.@.@.@.@.@.@.@.@.@.@.@.@.@.@.@.@.@.@.@.@.@.@.@.@.@.@.@.@.@.@.@.@.@.@.@.@.@.@.@.@.@.@.@.@.@.@.@.@.@.@.@.@.@.@.@.@.@.@.@.@.@.@.",
"@.@.@.@.@.@.@.@.@.@.@.@.@.@.@.@.@.@.@.@.@.@.@.@.@.@.@.@.@.@.@.@.@.@.@.@.@.@.@.@.@.@.@.@.@.@.@.@.@.@.@.@.@.@.@.@.@.@.@.@.@.@.@.@.",
"@.@.@.@.@.@.@.@.@.@.@.@.@.@.@.@.@.@.@.@.@.@.@.@.@.@.@.@.@.@.@.@.@.@.@.@.@.@.@.@.@.@.@.@.@.@.@.@.@.@.@.@.@.@.@.@.@.@.@.@.@.@.@.@.",
"@.@.@.@.@.@.@.@.@.@.@.@.@.@.@.@.@.@.@.@.@.@.@.@.@.@.@.@.@.@.@.@.@.@.@.@.@.@.@.@.@.@.@.@.@.@.@.@.@.@.@.@.@.@.@.@.@.@.@.@.@.@.@.@.",
"@.@.@.@.@.@.@.@.@.@.@.@.@.@.@.@.@.@.@.@.@.@.@.@.@.@.@.@.@.$.@.@.@.@.@.@.@.@.@.@.@.@.@.@.@.@.@.@.@.@.@.@.@.@.@.@.@.@.@.@.@.@.@.$.",
"@.@.@.@.@.@.@.@.@.@.@.@.@.@.@.@.@.@.@.@.@.@.@.@.@.@.@.@.@.@.@.@.@.@.@.@.@.@.@.@.@.@.@.@.@.@.@.@.@.@.@.@.@.@.@.@.@.@.@.@.@.@.@.@.",
"@.@.@.@.@.@.@.@.@.@.@.@.@.@.@.@.@.@.@.@.@.@.@.@.@.@.@.@.@.@.@.@.@.@.@.@.@.@.@.@.@.@.@.@.@.@.@.@.@.@.@.@.@.@.@.@.@.@.@.@.@.@.@.@.",
"@.@.@.@.@.@.@.@.@.@.@.@.@.@.@.@.@.@.@.@.@.@.@.@.@.@.@.@.@.@.@.@.@.@.@.@.@.@.@.@.@.@.@.@.@.@.@.@.@.@.@.@.@.@.@.@.@.@.@.@.@.@.@.@.",
"@.@.@.@.@.@.@.@.@.@.@.@.@.@.@.@.@.@.@.@.@.@.@.@.@.@.@.@.@.@.@.@.@.@.@.@.@.@.@.@.@.@.@.@.@.@.@.@.@.@.@.@.@.@.@.@.@.@.@.@.@.@.@.@.",
"@.@.@.@.@.@.@.@.@.@.@.@.@.@.@.@.@.@.@.@.@.@.@.@.@.@.@.@.@.@.@.@.@.@.@.@.@.@.@.@.@.@.@.@.@.@.@.@.@.@.$.@.@.@.@.@.@.@.@.@.@.@.@.@.",
"@.@.@.@.@.@.@.@.@.@.@.@.@.@.@.@.@.@.@.@.@.@.@.@.@.@.@.@.@.@.@.@.@.@.@.@.@.@.@.@.@.@.@.@.@.@.@.@.@.@.@.@.@.@.@.@.@.@.@.@.@.@.@.@.",
"@.@.@.@.@.@.@.@.@.@.@.@.@.@.@.@.@.@.@.@.@.@.@.@.@.@.@.@.@.@.@.@.@.@.@.@.@.@.@.@.@.@.@.@.@.@.@.@.@.@.@.@.@.@.@.@.@.@.@.@.@.@.@.@.",
"@.@.@.@.@.@.@.@.@.@.@.@.@.@.@.@.@.@.@.@.@.@.@.@.@.@.@.@.@.@.@.@.@.@.@.@.@.@.@.@.@.@.@.@.@.@.@.@.@.@.@.@.@.@.@.@.@.@.@.@.@.@.@.@.",
"@.@.@.@.@.@.@.@.@.@.@.@.@.@.@.@.@.@.@.@.@.@.@.@.@.@.@.@.@.@.@.@.@.@.@.@.@.@.@.@.@.@.@.@.@.@.@.@.@.@.@.@.@.@.@.@.@.@.@.@.@.@.@.@.",
"@.@.@.@.@.@.@.@.@.@.@.@.@.@.@.@.@.@.@.@.@.@.@.@.$.@.@.@.@.@.@.@.@.@.@.@.@.@.$.@.@.@.@.@.@.@.@.@.@.@.@.@.@.@.@.@.@.@.@.@.@.@.@.@.",
"@.@.@.@.@.$.@.@.@.@.@.@.@.@.@.@.@.@.@.@.@.@.@.@.@.@.@.@.@.@.@.@.@.@.@.@.@.@.@.@.@.@.@.@.@.@.@.@.@.@.@.@.@.@.@.@.@.@.@.@.@.@.@.@.",
"@.@.@.@.@.@.@.@.@.@.@.@.@.@.@.@.@.@.@.@.@.@.@.@.@.@.@.@.@.@.@.@.@.@.@.@.@.@.@.@.@.@.@.@.@.@.@.@.@.@.@.@.@.@.@.@.@.@.@.@.@.@.@.@.",
"@.@.@.@.@.@.@.@.@.@.@.@.@.@.@.@.@.@.@.@.@.@.@.@.@.@.@.@.@.@.@.@.@.@.@.@.@.@.@.@.@.@.@.@.@.@.@.@.@.@.@.@.@.@.@.@.@.@.@.@.@.@.@.@.",
"@.@.@.@.@.@.@.@.@.@.@.@.@.@.@.@.@.@.@.@.@.@.@.@.@.@.@.@.@.@.@.@.@.@.@.@.@.@.@.@.@.@.@.@.@.@.@.@.@.@.@.@.@.@.@.@.@.@.@.@.@.@.@.@.",
"@.@.@.@.@.@.@.@.@.@.@.@.@.@.@.@.@.@.@.@.@.@.@.@.@.@.@.@.@.@.@.@.@.@.@.@.@.@.@.@.@.@.@.@.@.@.@.@.@.@.@.@.@.@.@.@.@.@.@.@.@.@.$.O.",
"@.@.@.@.@.@.@.@.@.@.@.@.@.@.@.@.@.@.@.@.@.@.@.@.@.@.@.@.@.@.@.@.@.@.@.@.@.@.@.@.@.@.@.@.@.@.@.@.@.@.@.@.@.@.@.@.@.@.@.@.@.@.@.@.",
"@.@.@.@.@.@.@.@.@.@.@.@.@.@.@.@.@.@.@.@.@.@.@.@.@.@.@.@.@.@.@.@.@.@.@.@.@.@.@.@.@.@.@.@.@.@.@.@.@.@.@.@.@.@.@.@.@.@.@.@.@.@.@.@.",
"@.@.@.@.@.@.@.@.@.@.@.@.@.@.@.@.@.@.@.@.@.@.@.@.@.@.@.@.@.@.@.@.@.@.@.@.@.@.@.@.@.@.@.@.@.@.@.@.@.@.@.@.@.@.@.@.@.@.@.@.@.@.@.@.",
"@.@.@.@.@.@.@.@. .@.O.@. .@.@.@.@.@.@.@.O.@.@.@.@.@.@.@.@.@.@.@.@.@.@.@.@.@.@.@.@.@.@.@.@.@.@.@.@.@.@.@.@.@.@.@.@.@.@.@.@.@.@.@.",
"@.@.@.@.@.@.@.@.@.o.O. .@.@.@.@.O.@.@. .@.@.@.@.@.@.@.@.@.@.@.@.@.@.@.@.@.@.@.@.o.@.@.@.@.@.@.@.@.@.@.@.@.@.@.@.@.@.@.@.@.@.@.@.",
"@.@.@.@.@.@.@.@.@.@.#.@.@.@.o.#.@.@.#.@.@.@.@.#.@.o.#.@.#.@.@.@.@.@.@.#.@.#.@.@.@.@.@.@.@.@.@.@.@.@.@.@.@.@.@.@.@.@.@.@.@.@.@.@.",
"@.@.@.@.@.@.@.@.@.[ E Q Q Q Q Q Q Q E ` ( ) ) ! } | } } } } ` } } } | } } ] } } @.@.@.@.@.@.@.@.@.@.@.@.@.@.@.@.@.@.@.@.@.@.@.@.",
"@.@.@.@.@.@.o.@.@.U i.b.b.c.q.x.n.a.f Z.i.i.i.i.N.p M.Z.Z.Z.Z.Z.S.M.d Z.Z.Z.N.d | @.@.@.@. .@.@.@.@.@.@.@.@.@.@.@.@.@.@.@.@.@.@.",
"@.@.@.@.@.@.@.@.Y G Z.z.L.g.g.L.`.h g.`.K.K.K.`.b.V S.`.K.`.K.K.`.t.a `.K.`.b.A } @.X.X.X.+.+.+.@.@.@.@.@.@.@.@.@.@.@.@.@.@.@.@.",
"@.@.@.@.@.@.o.) h v.g.N.0.G b.k.0.f b.K.K.K.J.K.v.V S.K.J.K.J.J.`.a.f J.K.K.b.A X.XXoXoXoXXXXXD.o.+.@.@.@.@.@.@.@.@.@.@.@.@.@.@.",
"@.@.@.@.@.@.@.) A.'.L.K.N.i.0.S e a n.K. XJ.J.K.v.V Z.K.J.J.K.J.`.t.f J.J.`.b.Z | ^.[.[.[.[.[.[.{..Xo.@.@.@.@.@.@.@.@.@.@.@.@.@.",
"@.@.@.@.@.@.@.m s.L.L.k.A.J.h h p m.n.K.`.J.J.`.v.V S.L.J.K.K.J.`.a.f J.K. Xb.A } !.=.~ ~ 3.:.c :.I..X+.@.@.@.@.@.@.@.@.@.@.@.@.",
"@.@.@.@.@.@.[ m Z.n.x.t.p.u s.0.V A z.v.v.x.v.v.l.V C.v.z.v.v.v.b.q.f v.v.v.l.A | ;.H 1X<X<X<X,X,X*XD.-X..o.o.@.@.@.@.@.@.@.@.@.",
"@.@.@.@.@.@.[ M Z.z.a.u s f.s.m.V.C g.l.j.j.l.l.g.V V.l.l.l.g.g.z.q.f j.j.l.g.A @.;.B >X3X7X6X6X6X8XD. X-X{ o.@.@.@.@.@.@.@.@.@.",
"@.@.@.@.O.@.[ N C.l.u h g.k.h S.q.C j.z.l.l.l.l.g.C V.z.l.l.l.l.c.q.a l.l.l.h.A W ;.H :X=X>X3X3X4X6X1X~ qXX.@.@.@.@.@.@.@.@.@.@.",
"@.@.@.@.@.@.| N h 8.d q.0.h d l.9.a j.l.l.l.l.z.g.V V.z.l.l.l.l.z.q.f l.l.l.j.p O -.B :X=X=X>X3X4X3X5X;X X-X{ ..{ @.@.@.@.@.@.@.",
"@.@.@.@.@.@.| N Z.j.h.j.g.d t.c.9.a h.l.l.l.l.l.g.V V.z.l.l.l.l.z.e.A l.l.z.j.p X -.B :X&X&X&X&X2X4X6X4X~ qX+.7 ] @. .@.@.@.@.@.",
"@.@.@.@.@.@.[ N t. XwXz.i.d l.z.9.C j.l.l.l.l.l.g.C V.l.l.l.l.l.z.V.A l.l.l.g.p X ;.v E Q ! ! E #X>X3X7X*X}.-X5 ] @.O. .@.@.@.@.",
"@.@.@.@.@.@.[ m y.@XeXh.d V.z.z.9.a j.z.l.l.l.z.g.V V.z.k.l.l.k.z.N.A l.l.l.j.V . ;.T.I.W.F.d.T.~ %X=X2X8X_ +Xb ^ @.@.X.@.@.@.@.",
"@.@.@.@.@.@.[ t t.h.h.a.d f.g.h.9.a f.g.g.f.f.j.S.C V.j.f.f.f.f.h.N.A f.g.g.f.p . ;.Q.Q.P.d.H.H.Y.J :X=X<X,XD.N / @.@.@.@.@.@.@.",
"@.@.@.@.@.@.[ N M.u.y.d w.B.B.B.m.C B.7.B.y.e.r.B.A B.r.B.r.e.w.e.7.a w.w.w.w.i X ;.].].H.p.d.F.Q.F.$X$X$X#XF..X] @.@.@.@.@.@.@.",
"@.@.@.@.@.@.[ N M.y.r.e w , r c g r x c q , q q q q q t w 0 t m F F F S F g D N o -.(._.W.^.^.T.Q.E.Y.Y.R.Y.I.G.[ @. .@.@.@.@.@.",
"@.@.@.@.@.@.[ t M.y.u $ + = -.j = = = &.-.% + @ @ @ + 5 4   4 o.{ o.{ { ..|.4.2.  8 I.,.:.:.,.T.Q.Q._.Q.Q.Q.R.<.{ @.o.@.@.@.@.@.",
"@.@.@.@.@.@.{ N d p S - * ;.= > % % & - 9 =.- ; : : $ 3 t @ 3 %.OX%.9X%.6.6.OXP   =.z - @ # 1 l U.Q.E.E.E.Q./.1.6.[ @.@.@.@.@.@.",
"@.@.@.@.@. .@.} y y $.U >.j $ * I R 5 * # *.k $ : > : > K 7 b $.9X6.6.6.9X6.0X3 9 z + 5 ^ I * ; j /.E.Q.E.Q.E.<.{ @.@.@.@.@.@.@.",
"@.@.@.@.@.@.@.| E _ 0X%.,.O $ T ' W [ 2 # 8 z # ; ; ; ; : 1 1 ' 9X%.6.6.6.9Xo.= &.O 1 [ W ] T % & I.Q.E.E.Q.E.!. .@.@.@.@.@.@.@.",
"@.@.@.@.@.@.@.@.@.#.@.#.<.% < R k > ' 6 $ 8 >.U U P U U P L L ( $.@.@.@.@.@.X.^ z # 6 ] * K R % 1 ,.Q.R._.)./.~.3.+.@.@.@.@.@.@.",
"@.@.@.@.@.@.@.@.@.@.@.@.@.n o L T Y T 1 :  .#.%.%.#.#.$.%.%.%.@.o.@.@.@.@.@.@.$.O.% * T Y T K X K |.I.U.U.U.U.U.5.O.@.@.@.@.@.@.",
"@.@.@.@.@.@.@.@.@.@.@.@.@.' o % k L 5 . b #.@.o.O.| @.o.@.@.O.@.@.@.@.@.@.@.@.| @.7 . 2 L K % $ ' @.5.4.4.4.4.4.@.O. .@.@.@.@.@.",
"@.@.@.@.@.@.@.@.@.@.@.@.@.@.P % .   . 6 @.@.@.@. .@.@.@.@.@. .@.@.@.@.@.@.@.@.O.@.[ 5 .   . % T #.o.o.o.+.O.+.+.@.@.@.@.@.@.@.@.",
"@.@.@.@.@.@.@.@.@.@.@.@.@.@.$.[ P L R @.@.@.@.@.@.@.@.@.@.@.@.@.@.@.@.@.@.@. .@.@.@.@.^ K I [ @.@.@.@.@. .@. .@.@.@. .@.@.@.@.@.",
"@.@.@.@.@.@.@.@.@.@.@.@.@.@.@.@.%.%.@.@.@.@.| o.@.@.@.@.@.@.@.@.@.@.@.@.@.@.@.@.@.@.@.@.%.%.@.@.@.@.@.@.@.@.@.@.@.@.O.@.@.@.@.@.",
"@.@.@.@.@.@.@.@.@.@.@.@.@.@.@.@.@.X. .@.@.@.@.@.@.@.@.@.@.@.@.@.@.@.@.@.@.@.@.O.@.@.@.@.@.O. . .@.@.@.@.@.@.@.@.@.@.@.@.@.@.@.@.",
"@.@.@.@.@.@.@.@.@.@.@.@.@.@.o.@.@.@.@.@.o.@.@.@.@.@.@.@.@.@.@.@.@.@.@.@.@.@.@.@.@.@.@.@.@.O.@.O.@.@.@.@.@.@.@.@.@.@.@.@.@.@.@.@.",
"@.@.@.@.@.@.@.@.@.@.@.@.@.@.@.@.@.@.@.@.@.@.@.@.@.@.@.@.@.@.@.@.@.@.@.@.@.@.@.@.@.@.@.@.@.@.@.@.@.@.@.@.@.@.@.@.@.@.@.@.@.@.@.@.",
"@.@.@.@.@.@.@.@.@.@.@.@.@.@.@.@.@.@.@.@.@.@.@.$.@.@.@.@.@.@.@.@.@.@.@.@.@.@.@.@.@.@.@.@.@.@.@.@.@.@.@.@.@.@.@.@.@.@.@.@.@.@.@.@.",
"@.@.@.@.@.@.@.@.@.@.@.@.@.@.@.@.@.@.@.@.@.@.@.@.@.@.@.@.@.@.@.@.@.@.@.@.@.@.@.@.@.@.@.@.@.@.@.@.@.@.@.@.@.@.@.@.@.@.@.@.@.@.@.@.",
"@.@.@.@.@.@.@.@.@.@.@.@.@.@.@.@.@.@.@.@.@.@.@.@.@.@.@.@.@.@.@.@.@.@.@.@.@.@.@.@.@.@.@.@.@.@.@.@.@.@.@.@.@.@.@.@.@.@.@.@.@.@.@.@.",
"@.@.@.@.@.@.@.@.@.@.@.@.@.@.@.@.@.@.@.@.@.@.@.@.@.@.@.@.@.@.@.@.@.@.@.@.@.@.@.@.@.@.@.@.$.@.@.@.@.@.@.@.@.@.@.@.@.@.@.@.@.@.@.@.",
"@.@.@.@.@.@.@.@.@.@.@.@.@.@.@.@.@.@.@.@.@.@.@.@.@.@.@.@.@.@.@.@.@.@.@.@.@.@.@.@.@.@.@.@.@.@.@.@.@.@.@.@.@.@.@.@.@.@.@.@.@.@.@.@.",
"@.@.@.@.@.@.@.@.@.@.@.@.@.@.@.@.@.@.@.@.@.@.@.@.@.@.@.@.@.@.@.@.@.@.@.@.@.@.@.@.@.@.@.@.@.@.@.@.@.@.@.@.@.@.@.@.@.@.@.@.@.@.@.@.",
"@.@.@.@.@.@.@.@.@.@.@.@.@.@.@.@.@.@.@.@.@.@.@.@.@.@.@.@.@.@.@.@.@.@.@.@.@.@.@.@.@.@.@.@.@.@.@.@.@.@.@.@.@.@.@.@.@.@.@.@.@.@.@.@.",
"@.@.@.@.@.@.@.@.@.@.@.@.@.@.@.@.@.@.@.@.@.@.@.@.@.@.@.@.@.@.@.@.@.@.@.@.@.@.@.@.@.@.@.@.@.@.@.@.@.@.@.@.@.@.@.@.@.@.@.@.@.@.@.@.",
"@.@.@.@.@.@.@.@.@.@.@.@.@.@.@.@.@.@.@.@.@.@.@.@.@.@.@.@.@.@.@.@.@.@.@.@.@.@.@.@.@.@.@.@.@.@.@.@.@.@.@.@.@.@.@.@.@.@.@.@.@.@.@.@."
};
